<svg version="1.1" xmlns="http://www.w3.org/2000/svg" width="1024" height="1024">
<path d="M0 0 C337.92 0 675.84 0 1024 0 C1024 337.92 1024 675.84 1024 1024 C686.08 1024 348.16 1024 0 1024 C0 686.08 0 348.16 0 0 Z " fill="#FFFFFF" transform="translate(0,0)" width="50" height="30"/>
<path d="M0 0 C3.88924158 1.8057193 5.51165031 3.26747547 7.875 6.8125 C9.23929546 10.67800379 9.62232336 12.92032464 9 17 C6.1214044 22.84154564 1.90268949 27.19598439 -2.73828125 31.66015625 C-7.62108274 36.711621 -11.77534852 42.39761442 -16 48 C-16.42571289 48.55961426 -16.85142578 49.11922852 -17.29003906 49.69580078 C-34.05045604 71.86174709 -45.31067321 96.38955684 -53 123 C-53.32742188 124.11761719 -53.65484375 125.23523438 -53.9921875 126.38671875 C-58.57661656 143.3302014 -59.54405403 160.22805651 -59.4375 177.6875 C-59.43445862 178.74515564 -59.43141724 179.80281128 -59.42828369 180.89251709 C-59.36279462 196.28652485 -58.81647158 211.01490515 -55 226 C-54.77505859 226.93295898 -54.55011719 227.86591797 -54.31835938 228.82714844 C-50.51526263 244.46384785 -45.67173204 259.49474022 -38.1015625 273.7421875 C-37 276 -37 276 -37 278 C-36.34 278 -35.68 278 -35 278 C-35.33 276.68 -35.66 275.36 -36 274 C-33 273 -33 273 -32 273 C-32 272.34 -32 271.68 -32 271 C-31.01 270.67 -30.02 270.34 -29 270 C-28.34 270.33 -27.68 270.66 -27 271 C-26.96261719 269.96359375 -26.92523438 268.9271875 -26.88671875 267.859375 C-26.82104212 266.48954816 -26.75459536 265.11975809 -26.6875 263.75 C-26.66494141 263.06808594 -26.64238281 262.38617187 -26.61914062 261.68359375 C-26.39833396 257.54848704 -25.90407 255.02085566 -23 252 C-19.34783616 252.24216857 -18.1252091 252.87459587 -15.4921875 255.51171875 C-14.6136209 256.56519678 -13.74150731 257.62408085 -12.875 258.6875 C-5.32290143 267.41763821 3.55037745 272.20818685 15.04296875 273.28515625 C24.18845225 273.68817756 31.58668709 271.67771866 40.07470703 268.67578125 C55.37119883 263.30668547 55.37119883 263.30668547 63 263 C64.75763672 262.92265625 64.75763672 262.92265625 66.55078125 262.84375 C87.78590724 262.21223175 104.61709988 270.07184958 122.46704102 280.73608398 C138.53836476 290.24711295 155.06026096 293.89991593 173.43554688 289.40112305 C182.41422705 286.71549717 190.25824826 281.24355562 198.2109375 276.4296875 C216.47412473 265.44319241 236.98924528 259.41209954 258.24926758 264.18408203 C265.32897756 265.96545628 272.18950548 268.35982405 279.01171875 270.94921875 C290.43484209 274.96597715 303.09612184 274.06251486 314 269 C320.16700837 265.80044996 324.87013761 262.41586831 329.25 257 C331.1484375 254.70703125 331.1484375 254.70703125 333 253 C336.875 252.6875 336.875 252.6875 340 254 C342.00980058 256.27194848 342.00706706 258.05771434 342.375 261.0625 C341.46750526 270.5911948 336.73270477 278.84397212 332 287 C332.33 287.33 332.66 287.66 333 288 C333.33 287.34 333.66 286.68 334 286 C334.66 286 335.32 286 336 286 C335.34 288.97 334.68 291.94 334 295 C334.99 295 335.98 295 337 295 C337.33 294.34 337.66 293.68 338 293 C338.99 293 339.98 293 341 293 C340.34 292.67 339.68 292.34 339 292 C339.33 290.68 339.66 289.36 340 288 C341.98 288.33 343.96 288.66 346 289 C346.2578125 288.30132813 346.515625 287.60265625 346.78125 286.8828125 C348.1233867 283.70814299 349.77757103 280.86101416 351.5 277.875 C367.51148307 248.74585579 374.60550273 214.93050934 374.39111328 181.93652344 C374.37500813 179.00148079 374.39108509 176.0678144 374.41015625 173.1328125 C374.42940679 156.61558608 372.654162 140.53350544 368.3125 124.5625 C368.0561377 123.60988281 367.79977539 122.65726562 367.53564453 121.67578125 C359.1831718 91.62476693 344.39371824 63.62475027 324 40 C323.05725536 38.88654849 322.11592429 37.77189905 321.17578125 36.65625 C319.31439408 34.44795532 317.44895384 32.24326922 315.578125 30.04296875 C314.72734375 29.03878906 313.8765625 28.03460938 313 27 C312.54818359 26.46713379 312.09636719 25.93426758 311.63085938 25.38525391 C307.4217477 20.38577829 305.58173957 17.70338674 305.75 11.21484375 C306.22514211 7.00538164 308.31683466 4.78990992 311 1.6875 C315.6435477 -0.92449558 319.80992289 -1.03211761 325 0 C328.30565897 1.73030587 330.49954352 4.26365139 333 7 C334.05879471 8.0830837 335.12021932 9.16359983 336.18359375 10.2421875 C366.69242794 41.59636533 387.29011532 81.14345635 397.6875 123.4375 C397.87787842 124.19788574 398.06825684 124.95827148 398.2644043 125.74169922 C402.37455065 143.21116557 403.57591692 160.47171379 403.5 178.375 C403.49856995 179.46751068 403.49713989 180.56002136 403.4956665 181.68563843 C403.41360776 207.08884527 399.9579139 230.79785508 392 255 C391.67386719 256.00933594 391.34773438 257.01867187 391.01171875 258.05859375 C390.08426676 260.74289311 389.06276415 263.36619319 388 266 C387.74557129 266.65049316 387.49114258 267.30098633 387.22900391 267.97119141 C372.59419438 305.23919198 347.95729543 340.9597163 316.47265625 366.0234375 C314.48490338 367.61238371 312.5801685 369.23931623 310.6875 370.9375 C293.61575353 385.55894874 273.373911 395.83874796 253 405 C252.36239746 405.29213379 251.72479492 405.58426758 251.06787109 405.88525391 C229.97338304 415.44895487 206.87894008 420.27273605 184 423 C182.81543213 423.15251221 182.81543213 423.15251221 181.60693359 423.30810547 C173.72139609 424.23068869 165.80418672 424.24354666 157.875 424.25 C157.12600433 424.25067474 156.37700867 424.25134949 155.60531616 424.25204468 C142.21831049 424.23300554 129.20356668 423.32688673 116 421 C114.63319092 420.76651855 114.63319092 420.76651855 113.23876953 420.52832031 C88.47807918 416.14875955 64.19955907 407.77424095 42 396 C41.35756348 395.66291016 40.71512695 395.32582031 40.05322266 394.97851562 C24.50709426 386.73074452 10.12207805 376.69495939 -3 365 C-4.45816062 363.74979853 -5.91647021 362.49977076 -7.375 361.25 C-11.07941432 357.9901154 -14.55058529 354.52606837 -18 351 C-18.825 350.175 -19.65 349.35 -20.5 348.5 C-21.325 347.675 -22.15 346.85 -23 346 C-23.51264404 345.50693359 -24.02528809 345.01386719 -24.5534668 344.50585938 C-28.89382278 340.28274325 -32.67302526 335.83447586 -36.3125 331 C-36.8701001 330.26450928 -37.4277002 329.52901855 -38.00219727 328.77124023 C-43.30167972 321.71510694 -48.30366727 314.4711344 -53 307 C-53.46494873 306.26499268 -53.92989746 305.52998535 -54.40893555 304.77270508 C-58.43282909 298.25810955 -61.75703519 291.52261758 -64.9375 284.5625 C-65.45892578 283.42522461 -65.98035156 282.28794922 -66.51757812 281.11621094 C-75.60170656 261.05777827 -81.94385747 240.6397187 -86 219 C-86.18167725 218.14035645 -86.36335449 217.28071289 -86.55053711 216.39501953 C-88.53398912 205.80067746 -88.33668248 195.12572276 -88.31567383 184.38330078 C-88.31253297 181.03514428 -88.33596787 177.68789038 -88.36132812 174.33984375 C-88.41874808 155.4117099 -86.17455408 137.40814646 -81.8125 119 C-81.51206787 117.72745361 -81.21163574 116.45490723 -80.90209961 115.14379883 C-78.17808469 104.0227819 -74.59235209 93.47992688 -70 83 C-69.65791504 82.21786133 -69.31583008 81.43572266 -68.96337891 80.62988281 C-65.5637161 72.96024351 -61.95909994 65.48794507 -57.484375 58.37890625 C-55.79658382 55.67399881 -54.2507046 52.90363203 -52.6875 50.125 C-48.94871144 43.68965154 -44.5473027 37.87883333 -40 32 C-38.99809815 30.62638518 -37.99786217 29.25155225 -37 27.875 C-34.02119087 23.9032545 -30.72097609 20.25432969 -27.37109375 16.59375 C-25.76481365 14.83663305 -24.17403111 13.06524497 -22.59765625 11.28125 C-21.82292969 10.4046875 -21.04820312 9.528125 -20.25 8.625 C-19.20585937 7.43777344 -19.20585937 7.43777344 -18.140625 6.2265625 C-12.27846844 0.12906388 -8.35950471 -1.20298306 0 0 Z " fill="#6ABF69" transform="translate(342,378)"/>
<path d="M0 0 C3.88924158 1.8057193 5.51165031 3.26747547 7.875 6.8125 C9.23929546 10.67800379 9.62232336 12.92032464 9 17 C6.1214044 22.84154564 1.90268949 27.19598439 -2.73828125 31.66015625 C-7.62108274 36.711621 -11.77534852 42.39761442 -16 48 C-16.42571289 48.55961426 -16.85142578 49.11922852 -17.29003906 49.69580078 C-34.05045604 71.86174709 -45.31067321 96.38955684 -53 123 C-53.32742188 124.11761719 -53.65484375 125.23523438 -53.9921875 126.38671875 C-58.57661656 143.3302014 -59.54405403 160.22805651 -59.4375 177.6875 C-59.43445862 178.74515564 -59.43141724 179.80281128 -59.42828369 180.89251709 C-59.36279462 196.28652485 -58.81647158 211.01490515 -55 226 C-54.77505859 226.93295898 -54.55011719 227.86591797 -54.31835938 228.82714844 C-48.15589562 254.16455106 -38.26555305 277.04029424 -23.8125 298.8125 C-23.15975098 299.79605469 -22.50700195 300.77960938 -21.83447266 301.79296875 C-17.63854109 307.96066075 -13.06158536 313.52908585 -8 319 C-6.74632033 320.41341138 -5.49580862 321.82964605 -4.25 323.25 C-3.38955078 324.23033203 -3.38955078 324.23033203 -2.51171875 325.23046875 C-1.31277007 326.6338893 -0.17573188 328.09016106 0.9375 329.5625 C3.32507036 332.38417407 5.94951907 334.67577947 8.76171875 337.06640625 C10.2518436 338.35368688 11.71358185 339.67458831 13.14453125 341.02734375 C51.10424001 376.7883641 104.42465294 394.13150562 155.78540039 394.24023438 C158.5323774 394.24989407 161.27858964 394.28098135 164.02539062 394.3125 C175.67774198 394.38124544 186.57771172 393.24025912 198 391 C200.31207951 390.62241612 202.62451026 390.24696738 204.9375 389.875 C232.60824283 384.08208147 261.30509073 372.04237894 284 355 C285.11829471 354.18332684 286.23678711 353.36692431 287.35546875 352.55078125 C312.38885455 334.01725374 332.02343925 310.56218662 348 284 C348.37898438 283.37963867 348.75796875 282.75927734 349.1484375 282.12011719 C367.0344595 252.48378562 374.61381326 216.20947954 374.39111328 181.93652344 C374.37500813 179.00148079 374.39108509 176.0678144 374.41015625 173.1328125 C374.42940679 156.61558608 372.654162 140.53350544 368.3125 124.5625 C368.0561377 123.60988281 367.79977539 122.65726562 367.53564453 121.67578125 C359.1831718 91.62476693 344.39371824 63.62475027 324 40 C323.05725536 38.88654849 322.11592429 37.77189905 321.17578125 36.65625 C319.31439408 34.44795532 317.44895384 32.24326922 315.578125 30.04296875 C314.72734375 29.03878906 313.8765625 28.03460938 313 27 C312.54818359 26.46713379 312.09636719 25.93426758 311.63085938 25.38525391 C307.4217477 20.38577829 305.58173957 17.70338674 305.75 11.21484375 C306.22514211 7.00538164 308.31683466 4.78990992 311 1.6875 C315.6435477 -0.92449558 319.80992289 -1.03211761 325 0 C328.30565897 1.73030587 330.49954352 4.26365139 333 7 C334.05879471 8.0830837 335.12021932 9.16359983 336.18359375 10.2421875 C366.69242794 41.59636533 387.29011532 81.14345635 397.6875 123.4375 C397.87787842 124.19788574 398.06825684 124.95827148 398.2644043 125.74169922 C402.37455065 143.21116557 403.57591692 160.47171379 403.5 178.375 C403.49856995 179.46751068 403.49713989 180.56002136 403.4956665 181.68563843 C403.41360776 207.08884527 399.9579139 230.79785508 392 255 C391.67386719 256.00933594 391.34773438 257.01867187 391.01171875 258.05859375 C390.08426676 260.74289311 389.06276415 263.36619319 388 266 C387.74557129 266.65049316 387.49114258 267.30098633 387.22900391 267.97119141 C372.59419438 305.23919198 347.95729543 340.9597163 316.47265625 366.0234375 C314.48490338 367.61238371 312.5801685 369.23931623 310.6875 370.9375 C293.61575353 385.55894874 273.373911 395.83874796 253 405 C252.36239746 405.29213379 251.72479492 405.58426758 251.06787109 405.88525391 C229.97338304 415.44895487 206.87894008 420.27273605 184 423 C182.81543213 423.15251221 182.81543213 423.15251221 181.60693359 423.30810547 C173.72139609 424.23068869 165.80418672 424.24354666 157.875 424.25 C157.12600433 424.25067474 156.37700867 424.25134949 155.60531616 424.25204468 C142.21831049 424.23300554 129.20356668 423.32688673 116 421 C114.63319092 420.76651855 114.63319092 420.76651855 113.23876953 420.52832031 C88.47807918 416.14875955 64.19955907 407.77424095 42 396 C41.35756348 395.66291016 40.71512695 395.32582031 40.05322266 394.97851562 C24.50709426 386.73074452 10.12207805 376.69495939 -3 365 C-4.45816062 363.74979853 -5.91647021 362.49977076 -7.375 361.25 C-11.07941432 357.9901154 -14.55058529 354.52606837 -18 351 C-18.825 350.175 -19.65 349.35 -20.5 348.5 C-21.325 347.675 -22.15 346.85 -23 346 C-23.51264404 345.50693359 -24.02528809 345.01386719 -24.5534668 344.50585938 C-28.89382278 340.28274325 -32.67302526 335.83447586 -36.3125 331 C-36.8701001 330.26450928 -37.4277002 329.52901855 -38.00219727 328.77124023 C-43.30167972 321.71510694 -48.30366727 314.4711344 -53 307 C-53.46494873 306.26499268 -53.92989746 305.52998535 -54.40893555 304.77270508 C-58.43282909 298.25810955 -61.75703519 291.52261758 -64.9375 284.5625 C-65.45892578 283.42522461 -65.98035156 282.28794922 -66.51757812 281.11621094 C-75.60170656 261.05777827 -81.94385747 240.6397187 -86 219 C-86.18167725 218.14035645 -86.36335449 217.28071289 -86.55053711 216.39501953 C-88.53398912 205.80067746 -88.33668248 195.12572276 -88.31567383 184.38330078 C-88.31253297 181.03514428 -88.33596787 177.68789038 -88.36132812 174.33984375 C-88.41874808 155.4117099 -86.17455408 137.40814646 -81.8125 119 C-81.51206787 117.72745361 -81.21163574 116.45490723 -80.90209961 115.14379883 C-78.17808469 104.0227819 -74.59235209 93.47992688 -70 83 C-69.65791504 82.21786133 -69.31583008 81.43572266 -68.96337891 80.62988281 C-65.5637161 72.96024351 -61.95909994 65.48794507 -57.484375 58.37890625 C-55.79658382 55.67399881 -54.2507046 52.90363203 -52.6875 50.125 C-48.94871144 43.68965154 -44.5473027 37.87883333 -40 32 C-38.99809815 30.62638518 -37.99786217 29.25155225 -37 27.875 C-34.02119087 23.9032545 -30.72097609 20.25432969 -27.37109375 16.59375 C-25.76481365 14.83663305 -24.17403111 13.06524497 -22.59765625 11.28125 C-21.82292969 10.4046875 -21.04820312 9.528125 -20.25 8.625 C-19.20585937 7.43777344 -19.20585937 7.43777344 -18.140625 6.2265625 C-12.27846844 0.12906388 -8.35950471 -1.20298306 0 0 Z " fill="#6ABF69" transform="translate(342,378)"/>
<path d="M0 0 C4.42503487 -0.05031527 8.84990794 -0.08614055 13.27514648 -0.10986328 C14.77322294 -0.1197769 16.27128085 -0.13331185 17.76928711 -0.15087891 C31.77756593 -0.31075856 45.2591513 0.48475127 58.625 5.125 C59.51743408 5.43066895 60.40986816 5.73633789 61.3293457 6.05126953 C81.46193103 13.24733433 96.10206203 27.42608015 105.66796875 46.2890625 C106.99560009 49.98774219 107.15092462 52.37729481 107.11035156 56.20483398 C107.13620593 60.03515891 107.35408479 63.49570949 109 67 C115.05149482 72.94962382 124.13617498 75.4065661 132 78 C131.98889694 77.29700272 131.97779388 76.59400543 131.96635437 75.8697052 C131.86603825 69.23440507 131.78997796 62.59931749 131.74093914 55.96342945 C131.7148794 52.55203126 131.6795511 49.14126126 131.62280273 45.73022461 C131.55792597 41.80590416 131.5337893 37.88183526 131.51171875 33.95703125 C131.48591232 32.73603226 131.4601059 31.51503326 131.43351746 30.2570343 C131.43039344 20.82014418 131.43039344 20.82014418 134.40551758 17.75268555 C137.93052423 15.37139047 140.01500871 14.73142029 144.25 14.5 C145.18328125 14.4278125 146.1165625 14.355625 147.078125 14.28125 C150.86255787 15.21218001 152.29442635 16.69609171 154.72705078 19.66836548 C157.31531032 24.40922647 156.72309238 29.66842969 156.5859375 34.93359375 C156.57744781 36.16666763 156.56895813 37.39974152 156.56021118 38.67018127 C156.52672896 42.59352406 156.45144936 46.51478246 156.375 50.4375 C156.34150223 53.10348556 156.31751994 55.76945154 156.29296875 58.43554688 C156.22695389 64.95773775 156.12665282 71.47871994 156 78 C158.54425853 76.7550659 161.08534361 75.50426112 163.625 74.25 C164.33785156 73.90195312 165.05070313 73.55390625 165.78515625 73.1953125 C170.0825923 71.06630748 174.19539552 68.9353357 178 66 C178.79700244 63.20445357 179.22460539 60.96736391 179.5 58.125 C181.83641832 41.26773275 189.51760139 28.65608636 202.95703125 18.1640625 C228.99012859 -0.34984755 256.37836994 -0.4980165 287 0 C286.5472039 7.24057721 286.05902195 14.32088883 284.3125 21.375 C284.14097412 22.08342041 283.96944824 22.79184082 283.79272461 23.52172852 C281.89408086 30.9793222 279.12273545 37.97996027 276 45 C275.59910156 45.91394531 275.19820312 46.82789063 274.78515625 47.76953125 C265.9322401 66.6974833 250.50612622 82.47479395 231 90 C222.98801183 92.87326472 211.09823611 93.69941204 203 91 C204.41566653 78.33764939 212.79614122 65.61105366 222.53662109 57.76171875 C225.14703108 55.7427725 227.79659261 53.8098052 230.49609375 51.91015625 C233.18661732 50.07225418 233.18661732 50.07225418 235 47 C235.33340471 43.95804573 235.33340471 43.95804573 235 41 C232.64979502 38.64979502 232.08090378 38.68085198 228.875 38.625 C219.25907879 38.91592755 211.57457423 45.43456982 205 52 C198.85993162 59.75063692 194.45081407 68.38940846 189.98242188 77.16601562 C182.8349211 90.79066693 173.76523688 99.33729362 159 104 C158.01 104 157.02 104 156 104 C156.02356567 105.96005981 156.02356567 105.96005981 156.04760742 107.9597168 C156.1019672 112.81447164 156.13637226 117.66919964 156.16479492 122.52416992 C156.17986772 124.62415086 156.20032941 126.7241004 156.22631836 128.82397461 C156.26276754 131.84496824 156.27974159 134.86554511 156.29296875 137.88671875 C156.30845261 138.82335861 156.32393646 139.75999847 156.33988953 140.72502136 C156.34116279 145.67289674 156.19426296 148.96385757 153 153 C152.32904297 153.88171875 152.32904297 153.88171875 151.64453125 154.78125 C148.63364549 157.01259526 145.34896129 156.51576994 141.73828125 156.4296875 C137.50185028 155.76491231 135.84517662 154.14466889 133 151 C131.8239997 148.6479994 131.87915459 147.26265599 131.88647461 144.64208984 C131.88655014 143.74130707 131.88662567 142.84052429 131.88670349 141.91244507 C131.89186478 140.93844757 131.89702606 139.96445007 131.90234375 138.9609375 C131.90446617 137.46694931 131.90446617 137.46694931 131.90663147 135.94277954 C131.91224064 132.75348947 131.9247947 129.56426894 131.9375 126.375 C131.94251382 124.21614685 131.94707693 122.05729259 131.95117188 119.8984375 C131.96221305 114.5989345 131.97896012 109.29947222 132 104 C130.3600708 103.78633789 130.3600708 103.78633789 128.68701172 103.56835938 C118.51067402 101.99965893 110.32030573 95.88555968 104 88 C99.8273214 82.01518669 96.34614808 75.71608027 93.00317383 69.24707031 C86.59225938 56.88394398 78.34177079 45.08770741 64.8671875 39.76171875 C60.87478184 38.70106602 56.78726956 38.10636522 53 40 C52.63836201 43.07392293 52.52186892 45.9337246 53 49 C55.02710535 51.18713998 56.560702 52.4028406 59 54 C69.43264553 61.6853822 76.8200178 70.05391703 82 82 C82.37382812 82.83917969 82.74765625 83.67835938 83.1328125 84.54296875 C84 87 84 87 84 91 C77.64377125 94.17811438 65.80808315 92.87948571 59.015625 91.12890625 C37.31129961 83.77355153 22.16547502 67.00465084 12 47 C7.62949741 37.96175661 4.99971546 28.73499413 2.625 19 C2.36195068 17.92532471 2.09890137 16.85064941 1.82788086 15.7434082 C1.5881958 14.7143335 1.34851074 13.68525879 1.1015625 12.625 C0.88838379 11.70976562 0.67520508 10.79453125 0.45556641 9.8515625 C-0.07444026 6.53405022 -0.07334241 3.35398484 0 0 Z " fill="#6ABF69" transform="translate(356,499)"/>
<path d="M0 0 C5.45687171 1.31717593 7.39422145 4.45152023 10.625 8.875 C11.35332031 9.85855469 12.08164062 10.84210938 12.83203125 11.85546875 C18.40017827 19.48118521 23.69188752 27.30697939 28.98291016 35.1262207 C31.92745479 39.46305783 34.95760405 43.70576158 38.12451172 47.8828125 C40.74353863 51.3600757 43.27177625 54.90285009 45.8125 58.4375 C50.33223515 64.71147026 54.87916555 70.96384222 59.46191406 77.19189453 C63.58447536 82.8020852 67.64775177 88.4542953 71.7121582 94.10668945 C74.85729104 98.46754875 78.05003002 102.78589278 81.30004883 107.0690918 C104.69076972 137.89802418 124.17240723 172.74397904 120.625 212.875 C119.68787931 218.96742456 118.21735389 224.9249991 116.625 230.875 C116.295 230.215 115.965 229.555 115.625 228.875 C115.625 230.195 115.625 231.515 115.625 232.875 C114.95833333 234.20833333 114.29166667 235.54166667 113.625 236.875 C113.955 237.535 114.285 238.195 114.625 238.875 C114.01921747 240.89427511 113.35580266 242.89753397 112.625 244.875 C110.26546906 242.51546906 110.13358587 241.09604383 109.625 237.875 C106.655 237.545 103.685 237.215 100.625 236.875 C100.625 236.215 100.625 235.555 100.625 234.875 C99.965 234.875 99.305 234.875 98.625 234.875 C98.2228125 233.946875 98.2228125 233.946875 97.8125 233 C96.66943152 230.5754767 96.66943152 230.5754767 93.625 228.875 C92.9375 225.25 92.9375 225.25 92.625 221.875 C95.1 220.885 95.1 220.885 97.625 219.875 C97.625 218.885 97.625 217.895 97.625 216.875 C96.965 216.875 96.305 216.875 95.625 216.875 C95.625 216.215 95.625 215.555 95.625 214.875 C94.965 214.875 94.305 214.875 93.625 214.875 C93.58632813 213.02261719 93.58632813 213.02261719 93.546875 211.1328125 C92.65146566 181.0272937 82.1343304 157.08510551 64.625 132.875 C63.63638191 131.49503292 62.64812084 130.11481002 61.66015625 128.734375 C53.15358096 116.87962005 44.48062652 105.14711984 35.80615234 93.41503906 C25.85148272 79.94867935 16.01837151 66.42034293 6.53515625 52.6171875 C5.35651986 50.92515734 4.14158557 49.25700471 2.87109375 47.6328125 C1.625 45.875 1.625 45.875 1.625 43.875 C0.965 43.875 0.305 43.875 -0.375 43.875 C-0.64441406 44.43574219 -0.91382813 44.99648438 -1.19140625 45.57421875 C-6.0406437 55.00062423 -12.62467072 63.45104663 -18.93115234 71.93115234 C-21.27841397 75.09126345 -23.60860826 78.26383846 -25.9375 81.4375 C-26.39495605 82.05995605 -26.85241211 82.68241211 -27.32373047 83.32373047 C-29.92756239 86.87407424 -32.49762116 90.44568391 -35.0402832 94.04003906 C-39.15453967 99.85562984 -43.39640132 105.54863266 -47.75 111.1875 C-71.33508033 141.80228119 -93.15319296 172.55550835 -91.375 212.875 C-91.05304291 214.89767697 -90.72113845 216.91882057 -90.375 218.9375 C-89.98765548 222.26765681 -90.00308214 223.37145325 -92.01953125 226.1015625 C-97.29693725 230.875 -97.29693725 230.875 -100.375 230.875 C-100.705 231.865 -101.035 232.855 -101.375 233.875 C-103.95572903 236.19765612 -104.82676068 236.875 -108.375 236.875 C-108.4575 236.09125 -108.54 235.3075 -108.625 234.5 C-109.09959068 231.76626491 -109.09959068 231.76626491 -111.25 230.625 C-112.95226879 230.02419925 -114.66245438 229.44584854 -116.375 228.875 C-122.34289955 193.88463658 -117.07618409 163.26115165 -98.375 132.875 C-97.47974609 131.38613281 -97.47974609 131.38613281 -96.56640625 129.8671875 C-92.9114917 123.94166784 -88.84824733 118.38487996 -84.6328125 112.84765625 C-80.49853741 107.40443247 -76.52009978 101.8465277 -72.51953125 96.3046875 C-69.57678251 92.23944697 -66.62004627 88.18806558 -63.58984375 84.1875 C-57.87766412 76.64339339 -52.32057018 69.03684176 -47.02807617 61.19067383 C-44.6131454 57.61971316 -42.08270107 54.23364335 -39.375 50.875 C-38.04666056 48.99023089 -36.7354524 47.09332262 -35.4375 45.1875 C-31.12791303 38.8996214 -26.67063082 32.72482083 -22.19165039 26.55688477 C-18.15794855 20.9906016 -14.22959008 15.36341816 -10.375 9.671875 C-4.24596774 1.10080645 -4.24596774 1.10080645 0 0 Z M-111.375 236.875 C-110.385 236.875 -109.395 236.875 -108.375 236.875 C-108.375 237.535 -108.375 238.195 -108.375 238.875 C-109.365 238.875 -110.355 238.875 -111.375 238.875 C-111.375 238.215 -111.375 237.555 -111.375 236.875 Z " fill="#6ABF69" transform="translate(499.375,219.125)"/>
<path d="M0 0 C5.40705888 4.31544511 9.07745216 9.77565711 12.8203125 15.52734375 C13.63255318 16.69419097 14.44500388 17.86089208 15.2578125 19.02734375 C16.8203125 21.52734375 16.8203125 21.52734375 16.8203125 23.52734375 C18.4703125 23.52734375 20.1203125 23.52734375 21.8203125 23.52734375 C22.22245479 29.69352556 20.78849586 34.70480132 18.8203125 40.52734375 C20.1403125 39.86734375 21.4603125 39.20734375 22.8203125 38.52734375 C22.8203125 40.50734375 22.8203125 42.48734375 22.8203125 44.52734375 C23.4596875 44.81609375 24.0990625 45.10484375 24.7578125 45.40234375 C26.8203125 46.52734375 26.8203125 46.52734375 27.8203125 48.52734375 C27.8603045 50.52694387 27.86378049 52.52781617 27.8203125 54.52734375 C29.1403125 54.52734375 30.4603125 54.52734375 31.8203125 54.52734375 C32.4803125 55.51734375 33.1403125 56.50734375 33.8203125 57.52734375 C34.8103125 57.52734375 35.8003125 57.52734375 36.8203125 57.52734375 C38.5190046 59.72968316 39.98760437 61.86135047 41.4453125 64.21484375 C42.05632812 65.15360352 42.05632812 65.15360352 42.6796875 66.11132812 C46.74467012 72.53857713 47.99152701 79.11792079 46.359375 86.65625 C42.7924591 98.38510876 36.40795651 109.04459387 25.6796875 115.3828125 C17.24158241 119.67320168 11.08302337 120.75928559 1.6953125 120.83984375 C0.591875 120.86884766 -0.5115625 120.89785156 -1.6484375 120.92773438 C-7.95237075 120.97639894 -12.67706426 120.45681817 -18.27294922 117.45849609 C-21.18492418 116.03643815 -23.97837912 115.86081337 -27.1796875 115.52734375 C-27.5096875 115.19734375 -27.8396875 114.86734375 -28.1796875 114.52734375 C-29.1696875 116.50734375 -29.1696875 116.50734375 -30.1796875 118.52734375 C-30.8396875 118.52734375 -31.4996875 118.52734375 -32.1796875 118.52734375 C-32.5096875 119.18734375 -32.8396875 119.84734375 -33.1796875 120.52734375 C-37.11692819 120.64521163 -41.05370511 120.71514549 -44.9921875 120.77734375 C-46.09240234 120.81085938 -47.19261719 120.844375 -48.32617188 120.87890625 C-61.10916839 121.02973807 -72.59691526 116.61314783 -82.02734375 107.80078125 C-83.5387812 106.10766206 -84.87317396 104.38227039 -86.1796875 102.52734375 C-86.83710938 101.63789063 -86.83710938 101.63789063 -87.5078125 100.73046875 C-93.04178219 92.66287438 -96.85651927 82.37684207 -95.1796875 72.52734375 C-92.98580724 65.60983206 -89.55780938 60.1405393 -85.5 54.17578125 C-84.83871094 53.16644531 -84.83871094 53.16644531 -84.1640625 52.13671875 C-83.75897461 51.53827148 -83.35388672 50.93982422 -82.93652344 50.32324219 C-81.95556017 47.99551129 -82.37137158 46.87565118 -83.1796875 44.52734375 C-83.51302083 43.19401042 -83.84635417 41.86067708 -84.1796875 40.52734375 C-75.88988387 37.5982798 -68.05058114 35.66367589 -59.1796875 36.52734375 C-57.84635417 37.19401042 -56.51302083 37.86067708 -55.1796875 38.52734375 C-52.4603582 37.74032024 -52.4603582 37.74032024 -50.1796875 36.52734375 C-50.8396875 35.86734375 -51.4996875 35.20734375 -52.1796875 34.52734375 C-51.8496875 34.19734375 -51.5196875 33.86734375 -51.1796875 33.52734375 C-52.1696875 33.03234375 -52.1696875 33.03234375 -53.1796875 32.52734375 C-52.6846875 31.53734375 -52.6846875 31.53734375 -52.1796875 30.52734375 C-52.1796875 29.86734375 -52.1796875 29.20734375 -52.1796875 28.52734375 C-53.96073468 26.92555782 -55.80506028 25.39352449 -57.6796875 23.90234375 C-58.700625 23.08507812 -59.7215625 22.2678125 -60.7734375 21.42578125 C-61.5675 20.79929687 -62.3615625 20.1728125 -63.1796875 19.52734375 C-60.4897044 10.39452308 -53.79004286 2.14459829 -45.359375 -2.46875 C-32.29105451 -8.38060927 -11.90725108 -8.04486318 0 0 Z " fill="#6ABF69" transform="translate(525.1796875,371.47265625)"/>
<path d="M0 0 C3.65216384 0.24216857 4.8747909 0.87459587 7.5078125 3.51171875 C8.3863791 4.56519678 9.25849269 5.62408085 10.125 6.6875 C17.67709857 15.41763821 26.55037745 20.20818685 38.04296875 21.28515625 C47.18845225 21.68817756 54.58668709 19.67771866 63.07470703 16.67578125 C78.37119883 11.30668547 78.37119883 11.30668547 86 11 C87.17175781 10.9484375 88.34351563 10.896875 89.55078125 10.84375 C110.78590724 10.21223175 127.61709988 18.07184958 145.46704102 28.73608398 C161.53836476 38.24711295 178.06026096 41.89991593 196.43554688 37.40112305 C205.41422705 34.71549717 213.25824826 29.24355562 221.2109375 24.4296875 C239.47412473 13.44319241 259.98924528 7.41209954 281.24926758 12.18408203 C288.32897756 13.96545628 295.18950548 16.35982405 302.01171875 18.94921875 C313.43484209 22.96597715 326.09612184 22.06251486 337 17 C343.16700837 13.80044996 347.87013761 10.41586831 352.25 5 C354.1484375 2.70703125 354.1484375 2.70703125 356 1 C359.875 0.6875 359.875 0.6875 363 2 C365.00980058 4.27194848 365.00706706 6.05771434 365.375 9.0625 C364.26864619 20.67921496 357.62439016 33.11207462 349 41 C336.85955675 50.17720209 322.82662519 52.54590405 308 51 C299.53512818 49.66284488 291.37042759 47.01593822 283.4296875 43.83203125 C269.63459599 39.10798866 252.98344412 41.03541444 240 47 C234.0228019 50.09074522 228.31474549 53.55461745 222.609375 57.1171875 C204.38978804 68.14045358 181.76434434 72.58311553 160.8125 67.5 C148.04974708 64.0768513 136.73718229 56.87644554 125.31591797 50.45092773 C114.73828632 44.55066134 105.81353393 41.8220858 93.6875 41.8125 C92.4819043 41.79413086 92.4819043 41.79413086 91.25195312 41.77539062 C82.20876786 41.75356476 74.28410506 44.09418825 65.8125 47.0625 C52.66799625 51.66473179 36.96153861 53.75834804 23.77734375 48.03515625 C11.3541557 41.70636234 2.02228757 31.06116574 -2.34375 17.8125 C-3.41185547 13.23490514 -3.83576122 8.64562767 -3 4 C-1.47265625 1.68359375 -1.47265625 1.68359375 0 0 Z " fill="#6ABF69" transform="translate(319,630)"/>
<path d="M0 0 C18.44631137 10.07622392 37.58557002 14.01970113 58.34179688 8.80639648 C67.69469627 5.62083327 76.18945224 0.53426076 84.7734375 -4.28491211 C107.05850998 -16.79363629 128.30590088 -20.550733 153.25195312 -13.66235352 C158.17838687 -11.97521867 162.45544794 -9.24213086 166.74804688 -6.35375977 C165.85313299 -0.7262193 161.46661448 2.56053998 157.62304688 6.45874023 C156.5015625 7.66046875 156.5015625 7.66046875 155.35742188 8.88647461 C149.70122126 14.6362883 149.70122126 14.6362883 145.38085938 14.68139648 C144.18203125 14.33979492 142.98320313 13.99819336 141.74804688 13.64624023 C120.22915466 11.93815411 105.5691926 17.27753631 86.99462891 27.42700195 C71.42312411 35.87778385 57.46811283 41.05494358 39.56054688 40.95874023 C37.90853271 40.95028076 37.90853271 40.95028076 36.22314453 40.94165039 C13.70456717 40.60742904 -4.15925771 31.75361016 -23.13793945 20.53100586 C-36.31717631 12.80791194 -50.7721981 11.97567918 -65.65820312 14.29858398 C-69.25195312 14.64624023 -69.25195312 14.64624023 -72.43945312 12.52124023 C-73.39636355 11.58228791 -74.33486016 10.62412035 -75.25195312 9.64624023 C-76.42757813 8.53249023 -76.42757813 8.53249023 -77.62695312 7.39624023 C-81.27569661 3.57374706 -84.76577677 -0.38315195 -88.25195312 -4.35375977 C-86.40851182 -9.07256877 -83.44251007 -10.1268474 -79.03320312 -12.18579102 C-50.26489326 -24.26686496 -25.42586704 -14.05688355 0 0 Z " fill="#6ABF69" transform="translate(460.251953125,714.353759765625)"/>
<path d="M0 0 C3.89578673 -0.30241267 6.61383677 -0.36066106 10.0078125 1.72265625 C14.5505807 5.63797028 19.31671114 9.96128905 19.859375 16.24609375 C19.95890385 27.35351375 19.95890385 27.35351375 17.69140625 32.30078125 C15.70085749 32.99515872 13.6988524 33.65688343 11.69140625 34.30078125 C6.95193592 39.6544378 3.7863766 45.91303418 0.69140625 52.30078125 C1.62525146 52.29554443 2.55909668 52.29030762 3.52124023 52.28491211 C6.97453421 52.26790505 10.42778392 52.25534823 13.88110352 52.24584961 C15.37785543 52.24081004 16.87460241 52.23397838 18.37133789 52.2253418 C20.51840432 52.21325966 22.66540587 52.20754934 24.8125 52.203125 C26.75274048 52.19526978 26.75274048 52.19526978 28.73217773 52.18725586 C31.69140625 52.30078125 31.69140625 52.30078125 32.69140625 53.30078125 C32.79153026 55.50728781 32.82221805 57.71700511 32.82421875 59.92578125 C32.82517548 60.58787598 32.8261322 61.2499707 32.82711792 61.93212891 C32.82779951 63.33431086 32.82594667 64.73649595 32.82177734 66.13867188 C32.81642871 68.29173838 32.82172295 70.44459627 32.828125 72.59765625 C32.82746421 73.95703171 32.82618304 75.31640705 32.82421875 76.67578125 C32.82309082 77.92101562 32.82196289 79.16625 32.82080078 80.44921875 C32.69140625 83.30078125 32.69140625 83.30078125 31.69140625 84.30078125 C20.4520949 85.27107188 7.7464322 85.98914867 -2.30859375 80.30078125 C-3.25863281 79.78 -4.20867187 79.25921875 -5.1875 78.72265625 C-10.94661384 75.31780066 -15.45416367 71.77312025 -19.30859375 66.30078125 C-19.96601563 65.41132813 -19.96601563 65.41132813 -20.63671875 64.50390625 C-26.17068844 56.43631188 -29.98542552 46.15027957 -28.30859375 36.30078125 C-26.11471349 29.38326956 -22.68671563 23.9139768 -18.62890625 17.94921875 C-17.96761719 16.93988281 -17.96761719 16.93988281 -17.29296875 15.91015625 C-16.88788086 15.31170898 -16.48279297 14.71326172 -16.06542969 14.09667969 C-15.08446642 11.76894879 -15.50027783 10.64908868 -16.30859375 8.30078125 C-16.64192708 6.96744792 -16.97526042 5.63411458 -17.30859375 4.30078125 C-11.5117691 2.25256987 -6.09970843 0.79471667 0 0 Z " fill="#6ABF69" transform="translate(458.30859375,407.69921875)"/>
<path d="M0 0 C5.40705888 4.31544511 9.07745216 9.77565711 12.8203125 15.52734375 C13.63255318 16.69419097 14.44500388 17.86089208 15.2578125 19.02734375 C16.8203125 21.52734375 16.8203125 21.52734375 16.8203125 23.52734375 C18.4703125 23.52734375 20.1203125 23.52734375 21.8203125 23.52734375 C22.66147065 30.76130387 20.04756228 37.12326996 16.8203125 43.52734375 C13.8322508 47.18771933 10.41181485 49.24302425 5.6484375 49.765625 C-2.79260998 50.00862485 -10.18015469 47.9455561 -18.1796875 45.52734375 C-17.9921875 43.65234375 -17.9921875 43.65234375 -17.1796875 41.52734375 C-14.6171875 40.27734375 -14.6171875 40.27734375 -12.1796875 39.52734375 C-13.96314592 36.54318953 -15.7578048 33.56593072 -17.5546875 30.58984375 C-18.06257813 29.73970703 -18.57046875 28.88957031 -19.09375 28.01367188 C-19.58359375 27.20478516 -20.0734375 26.39589844 -20.578125 25.5625 C-21.02849121 24.81363525 -21.47885742 24.06477051 -21.94287109 23.29321289 C-23.07210024 21.38278464 -23.07210024 21.38278464 -25.1796875 20.52734375 C-25.43621094 21.24664062 -25.69273437 21.9659375 -25.95703125 22.70703125 C-27.25084145 25.69147523 -28.82284356 28.03177812 -30.7421875 30.65234375 C-32.72320612 33.36234428 -34.11430373 35.33119245 -35.1796875 38.52734375 C-39.42196774 37.95265061 -42.45172874 35.42889124 -45.8046875 32.96484375 C-46.41844238 32.52027832 -47.03219727 32.07571289 -47.66455078 31.61767578 C-52.96620723 27.74949664 -58.11700067 23.70347712 -63.1796875 19.52734375 C-60.4897044 10.39452308 -53.79004286 2.14459829 -45.359375 -2.46875 C-32.29105451 -8.38060927 -11.90725108 -8.04486318 0 0 Z " fill="#6ABF69" transform="translate(525.1796875,371.47265625)"/>
<path d="M0 0 C0.99 0 1.98 0 3 0 C4.6986921 2.20233941 6.16729187 4.33400672 7.625 6.6875 C8.03234375 7.31333984 8.4396875 7.93917969 8.859375 8.58398438 C12.92435762 15.01123338 14.17121451 21.59057704 12.5390625 29.12890625 C8.9721466 40.85776501 2.58764401 51.51725012 -8.140625 57.85546875 C-16.57873009 62.14585793 -22.73728913 63.23194184 -32.125 63.3125 C-33.2284375 63.34150391 -34.331875 63.37050781 -35.46875 63.40039062 C-43.68789402 63.46384007 -50.31924776 62.40469582 -56.5 56.6875 C-58.50758544 53.09057608 -59.13461998 51.17321937 -59 47 C-56.45794396 40.77017252 -53.21324059 35.32109708 -48 31 C-44.49487305 30.43237305 -44.49487305 30.43237305 -40.51171875 30.51171875 C-39.80852005 30.51879349 -39.10532135 30.52586823 -38.3808136 30.53315735 C-36.14859773 30.56100788 -33.91894923 30.6237168 -31.6875 30.6875 C-30.16865619 30.71259549 -28.6497728 30.73540648 -27.13085938 30.75585938 C-23.41974752 30.81079993 -19.71012459 30.89700261 -16 31 C-16.56589844 30.02417969 -17.13179687 29.04835938 -17.71484375 28.04296875 C-18.45587182 26.75789475 -19.19674939 25.47273396 -19.9375 24.1875 C-20.49727539 23.22360352 -20.49727539 23.22360352 -21.06835938 22.24023438 C-22.63466635 19.51683576 -24.00369374 16.98891878 -25 14 C-24.27820557 13.61142822 -23.55641113 13.22285645 -22.81274414 12.82250977 C-19.56167204 11.07100483 -16.31206996 9.31679017 -13.0625 7.5625 C-11.92619141 6.95083984 -10.78988281 6.33917969 -9.61914062 5.70898438 C-8.53955078 5.12568359 -7.45996094 4.54238281 -6.34765625 3.94140625 C-5.34742432 3.40201416 -4.34719238 2.86262207 -3.31665039 2.30688477 C-1.1081772 1.19765735 -1.1081772 1.19765735 0 0 Z " fill="#6ABF69" transform="translate(559,429)"/>
<path d="M0 0 C4.35469962 1.45156654 5.42799919 4.78872127 7.5 8.625 C8.08587891 9.67494141 8.08587891 9.67494141 8.68359375 10.74609375 C13.14716204 18.84664362 16.24056321 25.52153956 15 35 C13.69722066 39.06290507 11.73726011 41.4921097 8.1875 43.9375 C3.27065029 45.5764499 -0.31830938 45.62651219 -5.1875 43.8125 C-9.22593343 41.20995401 -11.48039779 38.55880664 -13 34 C-15.15933183 21.51022838 -6.34888134 10.09309341 0 0 Z " fill="#6ABF69" transform="translate(499,304)"/>
<path d="M0 0 C1.53919474 3.07838948 1.67978768 4.58046198 1 8 C-1.81723515 10.46319969 -5.01950094 12.12507414 -8.3125 13.875 C-9.19357422 14.37257813 -10.07464844 14.87015625 -10.98242188 15.3828125 C-17.51621523 19 -17.51621523 19 -21 19 C-25 12.25 -25 12.25 -25 10 C-21.59382034 8.12606591 -18.17358467 6.27941548 -14.75 4.4375 C-13.78191406 3.90447266 -12.81382812 3.37144531 -11.81640625 2.82226562 C-10.88183594 2.32275391 -9.94726562 1.82324219 -8.984375 1.30859375 C-8.12553711 0.84251709 -7.26669922 0.37644043 -6.38183594 -0.10375977 C-3.70988024 -1.10916663 -2.59317667 -1.13930559 0 0 Z " fill="#6ABF69" transform="translate(552,418)"/>
<path d="M0 0 C2.375 -0.1875 2.375 -0.1875 5 0 C5.66 0.99 6.32 1.98 7 3 C6.69964844 3.49628906 6.39929688 3.99257813 6.08984375 4.50390625 C3.3439708 9.40924538 2.48085064 12.35744523 4 18 C4.95584438 20.33588323 4.95584438 20.33588323 6 22 C3.37886292 22 1.49064888 21.68707555 -1 21 C-1.66 22.32 -2.32 23.64 -3 25 C-3.66 25 -4.32 25 -5 25 C-5.33 25.66 -5.66 26.32 -6 27 C-6.66 26.67 -7.32 26.34 -8 26 C-7.67 18.08 -7.34 10.16 -7 2 C-5.35 3.65 -3.7 5.3 -2 7 C-1.34 4.69 -0.68 2.38 0 0 Z " fill="#6ABF69" transform="translate(498,465)"/>
<path d="M0 0 C0.66 -0.33 1.32 -0.66 2 -1 C2 0.65 2 2.3 2 4 C-0.70787448 5.43836985 -3.41628161 6.87572092 -6.125 8.3125 C-6.88554688 8.71662109 -7.64609375 9.12074219 -8.4296875 9.53710938 C-12.59445627 11.74515488 -16.77256184 13.9132933 -21 16 C-20.34 13.69 -19.68 11.38 -19 9 C-19.66 8.67 -20.32 8.34 -21 8 C-18.26070622 6.45925893 -15.50712161 4.94607142 -12.75 3.4375 C-11.97269531 2.99986328 -11.19539062 2.56222656 -10.39453125 2.11132812 C-9.64042969 1.70205078 -8.88632812 1.29277344 -8.109375 0.87109375 C-7.07248535 0.29766235 -7.07248535 0.29766235 -6.01464844 -0.28735352 C-3.57718948 -1.14956179 -2.42950838 -0.72104202 0 0 Z " fill="#6ABF69" transform="translate(556,427)"/>
<path d="M0 0 C0 2.64 0 5.28 0 8 C-3.09545572 9.70385928 -6.20259834 11.38517398 -9.3125 13.0625 C-10.19357422 13.54783203 -11.07464844 14.03316406 -11.98242188 14.53320312 C-12.82998047 14.98759766 -13.67753906 15.44199219 -14.55078125 15.91015625 C-15.72120972 16.54642944 -15.72120972 16.54642944 -16.9152832 17.19555664 C-19 18 -19 18 -22 17 C-21.67 15.02 -21.34 13.04 -21 11 C-20.40832031 10.90203125 -19.81664062 10.8040625 -19.20703125 10.703125 C-13.07451585 9.542649 -9.2165612 7.98383239 -5.375 2.8125 C-3.86127599 0.81713654 -2.65707378 0 0 0 Z " fill="#6ABF69" transform="translate(548,410)"/>
<path d="M0 0 C2.55326948 1.97820878 2.94850941 2.65427748 3.4375 5.9375 C2.91278296 9.61051925 1.82790258 10.70232915 -1 13 C-2.04449911 9.86650268 -1.93423645 9.01031744 -1 6 C-1.99 6.495 -1.99 6.495 -3 7 C-3 7.99 -3 8.98 -3 10 C-4.02104551 9.02149805 -5.0206121 8.02019573 -6 7 C-6 6.67 -6 6.34 -6 6 C-6.93972656 6.03480469 -6.93972656 6.03480469 -7.8984375 6.0703125 C-9.12433594 6.09738281 -9.12433594 6.09738281 -10.375 6.125 C-11.18710937 6.14820313 -11.99921875 6.17140625 -12.8359375 6.1953125 C-15 6 -15 6 -17 4 C-11.44851587 0.7700456 -6.51568183 -1.42651022 0 0 Z " fill="#6ABF69" transform="translate(589,537)"/>
<path d="M0 0 C0.33 0.66 0.66 1.32 1 2 C1.66 2 2.32 2 3 2 C3 2.66 3 3.32 3 4 C3.66 4 4.32 4 5 4 C5.33 4.99 5.66 5.98 6 7 C4.35 7.66 2.7 8.32 1 9 C1.33 11.31 1.66 13.62 2 16 C2.99 16 3.98 16 5 16 C5.66 18.64 6.32 21.28 7 24 C6.2575 23.814375 5.515 23.62875 4.75 23.4375 C2.00993984 23.00158134 0.60979891 23.28005547 -2 24 C-2.66 23.67 -3.32 23.34 -4 23 C-3.29885571 17.81970092 -2.41920353 12.69648064 -1.4375 7.5625 C-1.29892578 6.83095703 -1.16035156 6.09941406 -1.01757812 5.34570312 C-0.6797819 3.56353682 -0.34009012 1.78172998 0 0 Z " fill="#6ABF69" transform="translate(592,432)"/>
<path d="M0 0 C2 2 2 2 2 6 C1.01 6.495 1.01 6.495 0 7 C0 7.66 0 8.32 0 9 C-0.78375 9.226875 -1.5675 9.45375 -2.375 9.6875 C-5.189601 10.7840712 -5.189601 10.7840712 -6.375 13.5 C-7.28246153 15.97740308 -7.28246153 15.97740308 -6 18 C-8.31 18.33 -10.62 18.66 -13 19 C-12.4930024 14.27093615 -10.48769648 11.54141693 -7.625 7.8125 C-6.83351563 6.76707031 -6.04203125 5.72164063 -5.2265625 4.64453125 C-3 2 -3 2 0 0 Z " fill="#6ABF69" transform="translate(446,292)"/>
<path d="M0 0 C0.33 0 0.66 0 1 0 C1 14.85 1 29.7 1 45 C1.99 45.33 2.98 45.66 4 46 C4.875 47.875 4.875 47.875 5 50 C3.6875 51.75 3.6875 51.75 2 53 C1.34 53 0.68 53 0 53 C0 35.51 0 18.02 0 0 Z " fill="#6ABF69" transform="translate(512,524)"/>
<path d="M0 0 C6.12352638 4.51567309 12.0805035 9.22073438 18 14 C17.67 14.99 17.34 15.98 17 17 C16.34 16.67 15.68 16.34 15 16 C15.33 15.34 15.66 14.68 16 14 C15.01 14 14.02 14 13 14 C12.67 14.99 12.34 15.98 12 17 C12 15.68 12 14.36 12 13 C8.40333266 9.98299803 8.40333266 9.98299803 4 9 C3.67 7.35 3.34 5.7 3 4 C2.401875 4.33 1.80375 4.66 1.1875 5 C-1 6 -1 6 -4 6 C-3.34 4.68 -2.68 3.36 -2 2 C-1.34 2 -0.68 2 0 2 C0 1.34 0 0.68 0 0 Z " fill="#6ABF69" transform="translate(333,738)"/>
<path d="M0 0 C0.66 0.33 1.32 0.66 2 1 C2 1.66 2 2.32 2 3 C2.33 2.34 2.66 1.68 3 1 C3.99 1.33 4.98 1.66 6 2 C4.88223763 5.35328711 4.51607905 5.58311383 1.62109375 7.26171875 C0.61079102 7.85629883 0.61079102 7.85629883 -0.41992188 8.46289062 C-1.48049805 9.06907227 -1.48049805 9.06907227 -2.5625 9.6875 C-3.27341797 10.10322266 -3.98433594 10.51894531 -4.71679688 10.94726562 C-6.47322511 11.97283111 -8.23602691 12.98746671 -10 14 C-10.33 13.34 -10.66 12.68 -11 12 C-10.505 11.54625 -10.01 11.0925 -9.5 10.625 C-7.77390663 9.12364481 -7.77390663 9.12364481 -8 7 C-2.52380952 2 -2.52380952 2 0 2 C0 1.34 0 0.68 0 0 Z " fill="#6ABF69" transform="translate(617,732)"/>
<path d="M0 0 C0.99 -0.33 1.98 -0.66 3 -1 C3.66 -0.67 4.32 -0.34 5 0 C4.690625 0.763125 4.38125 1.52625 4.0625 2.3125 C3.32106407 4.18789677 2.63771783 6.08684652 2 8 C-1.99455527 7.38545304 -4.74466336 5.29353263 -8 3 C-7.67 2.01 -7.34 1.02 -7 0 C-3.75370153 -1.08209949 -3.12563502 -0.78140875 0 0 Z " fill="#6ABF69" transform="translate(488,402)"/>
<path d="M0 0 C1.32 0.66 2.64 1.32 4 2 C3.38125 2.7425 2.7625 3.485 2.125 4.25 C0.39562719 6.48801188 -0.86106661 8.43739987 -2 11 C-2.33 10.34 -2.66 9.68 -3 9 C-4.60414215 10.18523997 -4.60414215 10.18523997 -6 12 C-6.25069913 14.62570704 -6.25069913 14.62570704 -6 17 C-6.66 17.33 -7.32 17.66 -8 18 C-8.57007576 8.30871212 -8.57007576 8.30871212 -5 4 C-2.3125 1.6875 -2.3125 1.6875 0 0 Z " fill="#6ABF69" transform="translate(656,378)"/>
<path d="M0 0 C3.25 1.125 3.25 1.125 4.6875 2.75 C5.43743116 5.91637601 5.37461626 8.88497731 5.25 12.125 C4.59 10.805 3.93 9.485 3.25 8.125 C2.26 8.125 1.27 8.125 0.25 8.125 C-0.41 7.465 -1.07 6.805 -1.75 6.125 C-1.75 5.465 -1.75 4.805 -1.75 4.125 C-2.41 3.795 -3.07 3.465 -3.75 3.125 C-3.75 3.785 -3.75 4.445 -3.75 5.125 C-4.74 5.785 -5.73 6.445 -6.75 7.125 C-7.74 6.795 -8.73 6.465 -9.75 6.125 C-4.75769769 0.15858992 -4.75769769 0.15858992 0 0 Z " fill="#6ABF69" transform="translate(678.75,630.875)"/>
<path d="M0 0 C1.69433918 3.0469629 2.49467112 5.82821466 3.125 9.25 C3.29257812 10.14203125 3.46015625 11.0340625 3.6328125 11.953125 C3.75398438 12.62859375 3.87515625 13.3040625 4 14 C-0.75 13.25 -0.75 13.25 -3 11 C-2.01 10.67 -1.02 10.34 0 10 C0 8.68 0 7.36 0 6 C-1.6396875 6.7115625 -1.6396875 6.7115625 -3.3125 7.4375 C-5.53476255 8.40187809 -7.69500485 9.23166828 -10 10 C-10 9.34 -10 8.68 -10 8 C-8.38542921 6.56418526 -6.70780925 5.19855217 -5 3.875 C-4.071875 3.15054687 -3.14375 2.42609375 -2.1875 1.6796875 C-1.465625 1.12539063 -0.74375 0.57109375 0 0 Z " fill="#6ABF69" transform="translate(409,442)"/>
<path d="M0 0 C3.80133442 1.67923025 6.97082702 4.11462834 10.25 6.625 C10.80429687 7.04523437 11.35859375 7.46546875 11.9296875 7.8984375 C13.28866663 8.92938719 14.64463835 9.96429911 16 11 C13.50935112 11.68707555 11.62113708 12 9 12 C7.375 10.0625 7.375 10.0625 6 8 C5.67 7.67 5.34 7.34 5 7 C4.01 7 3.02 7 2 7 C0.25 4.625 0.25 4.625 -1 2 C-0.67 1.34 -0.34 0.68 0 0 Z " fill="#6ABF69" transform="translate(353,719)"/>
<path d="M0 0 C3 2 3 2 3.51171875 4.3828125 C3.56972656 5.28773438 3.62773437 6.19265625 3.6875 7.125 C3.75324219 8.03507812 3.81898438 8.94515625 3.88671875 9.8828125 C3.92410156 10.58148438 3.96148437 11.28015625 4 12 C3.21625 12.309375 2.4325 12.61875 1.625 12.9375 C-0.92330128 13.92875038 -0.92330128 13.92875038 -3 15 C-2.67 12.69 -2.34 10.38 -2 8 C-1.67 8.66 -1.34 9.32 -1 10 C-0.34 10 0.32 10 1 10 C1 8.68 1 7.36 1 6 C0.01 6.33 -0.98 6.66 -2 7 C-2.66 6.67 -3.32 6.34 -4 6 C-3.0022242 3.00667261 -2.2477975 2.05233685 0 0 Z " fill="#6ABF69" transform="translate(405,430)"/>
<path d="M0 0 C0.8353125 1.051875 0.8353125 1.051875 1.6875 2.125 C2.89812838 3.63010556 4.11795876 5.13034117 5.4140625 6.5625 C6.682356 7.97958771 7.84844043 9.4865217 9 11 C8.67 11.99 8.34 12.98 8 14 C5 14 5 14 3.375 12.8125 C1.68587944 10.58593199 1.37047118 8.74148672 1 6 C0.34 6 -0.32 6 -1 6 C-1.625 4.125 -1.625 4.125 -2 2 C-1.34 1.34 -0.68 0.68 0 0 Z " fill="#6ABF69" transform="translate(695,409)"/>
<path d="M0 0 C0.66 0 1.32 0 2 0 C0.66760776 3.72014468 -0.96888945 6.61890417 -3.375 9.75 C-3.96023438 10.52859375 -4.54546875 11.3071875 -5.1484375 12.109375 C-7.13445258 14.13728913 -8.22910257 14.6338021 -11 15 C-10.64950425 11.75791433 -10.43778819 10.38472296 -7.9375 8.1875 C-7.298125 7.795625 -6.65875 7.40375 -6 7 C-6.99 6.67 -7.98 6.34 -9 6 C-7 4 -7 4 -4.375 3.875 C-3.59125 3.91625 -2.8075 3.9575 -2 4 C-2 3.34 -2 2.68 -2 2 C-1.34 2 -0.68 2 0 2 C0 1.34 0 0.68 0 0 Z " fill="#6ABF69" transform="translate(458,317)"/>
<path d="M0 0 C0.33 0 0.66 0 1 0 C1.33 9.24 1.66 18.48 2 28 C2.66 27.67 3.32 27.34 4 27 C4 29.97 4 32.94 4 36 C2.515 36.495 2.515 36.495 1 37 C-0.24006181 33.17254277 -0.12692202 29.36654408 -0.09765625 25.390625 C-0.0962413 24.66381531 -0.09482635 23.93700562 -0.09336853 23.18817139 C-0.08778792 20.87540506 -0.07523904 18.56273688 -0.0625 16.25 C-0.05748249 14.67838682 -0.05292002 13.10677211 -0.04882812 11.53515625 C-0.03782485 7.69006657 -0.02057361 3.8450499 0 0 Z " fill="#6ABF69" transform="translate(745,544)"/>
<path d="M0 0 C2.78633115 4.17949673 4 6.93375326 4 12 C1.69 12.33 -0.62 12.66 -3 13 C-2.835 12.236875 -2.67 11.47375 -2.5 10.6875 C-1.90854604 7.96403764 -1.90854604 7.96403764 -2 5 C-1.37400383 3.31763529 -0.71247732 1.6476038 0 0 Z " fill="#6ABF69" transform="translate(436,578)"/>
<path d="M0 0 C0.33 0 0.66 0 1 0 C1.08736736 3.72901814 1.14051482 7.45777165 1.1875 11.1875 C1.22520508 12.77014648 1.22520508 12.77014648 1.26367188 14.38476562 C1.27817383 15.91713867 1.27817383 15.91713867 1.29296875 17.48046875 C1.3086792 18.41785889 1.32438965 19.35524902 1.34057617 20.32104492 C0.92565781 23.58477195 0.02029168 25.41289873 -2 28 C-3.32 28.33 -4.64 28.66 -6 29 C-5.34 26.36 -4.68 23.72 -4 21 C-3.01 21 -2.02 21 -1 21 C-0.67 14.07 -0.34 7.14 0 0 Z " fill="#6ABF69" transform="translate(511,624)"/>
<path d="M0 0 C0.33 0.99 0.66 1.98 1 3 C1.66 3.33 2.32 3.66 3 4 C2.34 4 1.68 4 1 4 C0.67 4.66 0.34 5.32 0 6 C-0.66 5.67 -1.32 5.34 -2 5 C-2.4640625 6.3921875 -2.4640625 6.3921875 -2.9375 7.8125 C-3.625 9.875 -4.3125 11.9375 -5 14 C-8 14 -8 14 -10 13 C-8.75768487 9.55974272 -7.50521315 6.69792186 -5 4 C-3.67139075 3.64830932 -2.33841672 3.31229724 -1 3 C-0.67 2.01 -0.34 1.02 0 0 Z " fill="#6ABF69" transform="translate(419,329)"/>
<path d="M0 0 C3.24208567 0.35049575 4.61527704 0.56221181 6.8125 3.0625 C7.204375 3.701875 7.59625 4.34125 8 5 C6.68 6.32 5.36 7.64 4 9 C3.5875 8.360625 3.175 7.72125 2.75 7.0625 C0.82189513 4.79009069 -0.11424181 4.39803561 -3 4 C-2.01 2.68 -1.02 1.36 0 0 Z " fill="#6ABF69" transform="translate(319,630)"/>
<path d="M0 0 C2.475 0.99 2.475 0.99 5 2 C4.67 3.32 4.34 4.64 4 6 C4.66 6.33 5.32 6.66 6 7 C6 7.66 6 8.32 6 9 C4.68 9.33 3.36 9.66 2 10 C0.68 8.02 -0.64 6.04 -2 4 C-1.34 2.68 -0.68 1.36 0 0 Z " fill="#6ABF69" transform="translate(569,352)"/>
<path d="M0 0 C0.598125 0.20625 1.19625 0.4125 1.8125 0.625 C1.8125 1.615 1.8125 2.605 1.8125 3.625 C0.8225 3.295 -0.1675 2.965 -1.1875 2.625 C-2.03204356 6.00317425 -2.29594919 8.29965243 -1.1875 11.625 C-2.1775 11.625 -3.1675 11.625 -4.1875 11.625 C-5.77617866 10.03632134 -5.39544039 8.37810484 -5.4375 6.1875 C-5.46328125 5.38441406 -5.4890625 4.58132813 -5.515625 3.75390625 C-5.40734375 3.05136719 -5.2990625 2.34882812 -5.1875 1.625 C-2.1875 -0.375 -2.1875 -0.375 0 0 Z " fill="#6ABF69" transform="translate(413.1875,537.375)"/>
<path d="M0 0 C0 3.63 0 7.26 0 11 C-1.32 11.33 -2.64 11.66 -4 12 C-5 11 -5 11 -5.25 7.6875 C-4.99579854 3.93802849 -4.45699183 0 0 0 Z " fill="#6ABF69" transform="translate(493,516)"/>
<path d="M0 0 C2 2 4 4 6 6 C5.625 8.125 5.625 8.125 5 10 C4.01 10 3.02 10 2 10 C1.67 9.34 1.34 8.68 1 8 C-0.98 8.99 -0.98 8.99 -3 10 C-2.67 8.02 -2.34 6.04 -2 4 C-1.34 4 -0.68 4 0 4 C0 2.68 0 1.36 0 0 Z " fill="#6ABF69" transform="translate(587,452)"/>
<path d="M0 0 C5.61538462 1.46488294 5.61538462 1.46488294 7.4375 4 C8 6 8 6 7 8 C6.01 8 5.02 8 4 8 C4 8.66 4 9.32 4 10 C3.34 10 2.68 10 2 10 C1.34 6.7 0.68 3.4 0 0 Z " fill="#6ABF69" transform="translate(384,448)"/>
<path d="M0 0 C1.32 0.66 2.64 1.32 4 2 C1.69 5.96 -0.62 9.92 -3 14 C-5 10 -5 10 -4.3125 7.5625 C-2.98163324 4.9641411 -1.55344668 2.47139244 0 0 Z " fill="#6ABF69" transform="translate(315,433)"/>
<path d="M0 0 C2.625 1.1875 2.625 1.1875 5 3 C5 4.32 5 5.64 5 7 C4.236875 6.95875 3.47375 6.9175 2.6875 6.875 C-0.22718416 6.77919176 -0.22718416 6.77919176 -3 9 C-4 6 -4 6 -3.1875 3.375 C-2 1 -2 1 0 0 Z " fill="#6ABF69" transform="translate(482,241)"/>
<path d="M0 0 C0.66 -0.33 1.32 -0.66 2 -1 C2 0.65 2 2.3 2 4 C0.35 4.66 -1.3 5.32 -3 6 C-3.33 5.01 -3.66 4.02 -4 3 C-5.65 3.33 -7.3 3.66 -9 4 C-9.33 3.34 -9.66 2.68 -10 2 C-3.97894737 -1.42105263 -3.97894737 -1.42105263 0 0 Z " fill="#6ABF69" transform="translate(556,427)"/>
<path d="M0 0 C1.32 0.33 2.64 0.66 4 1 C2.70910257 2.4590143 1.41725561 3.91718851 0.125 5.375 C-0.59429687 6.18710937 -1.31359375 6.99921875 -2.0546875 7.8359375 C-3.33295938 9.25795079 -4.64794586 10.64794586 -6 12 C-6 11.34 -6 10.68 -6 10 C-6.66 9.67 -7.32 9.34 -8 9 C-7.25 6.5625 -7.25 6.5625 -6 4 C-4 3.375 -4 3.375 -2 3 C-1.34 2.01 -0.68 1.02 0 0 Z " fill="#6ABF69" transform="translate(332,413)"/>
<path d="M0 0 C0.33 0 0.66 0 1 0 C2.10941367 5.32867983 2.11548069 10.46281855 2.0625 15.875 C2.05798828 16.75414062 2.05347656 17.63328125 2.04882812 18.5390625 C2.03712337 20.69273803 2.01919069 22.84637817 2 25 C1.67 25 1.34 25 1 25 C0.66034526 22.81347261 0.32857523 20.62571975 0 18.4375 C-0.2784375 16.61025391 -0.2784375 16.61025391 -0.5625 14.74609375 C-1.14738608 9.73800665 -1.55503071 4.85947097 0 0 Z " fill="#6ABF69" transform="translate(618,407)"/>
<path d="M0 0 C0.99 0.33 1.98 0.66 3 1 C3.33 0.67 3.66 0.34 4 0 C4.99 0.99 5.98 1.98 7 3 C5.68 4.65 4.36 6.3 3 8 C3 7.34 3 6.68 3 6 C2.01 6.99 1.02 7.98 0 9 C-0.66 8.67 -1.32 8.34 -2 8 C-1.125 1.125 -1.125 1.125 0 0 Z " fill="#6ABF69" transform="translate(306,393)"/>
<path d="M0 0 C1.59343619 0.230163 3.1763114 0.53512051 4.75 0.875 C6.04164063 1.14957031 6.04164063 1.14957031 7.359375 1.4296875 C8.23078125 1.61789062 9.1021875 1.80609375 10 2 C11.66613348 2.33598824 13.33264489 2.67012759 15 3 C10.70190904 5.86539397 6.50058972 5.32058843 1.5625 4.6875 C1.046875 4.460625 0.53125 4.23375 0 4 C-0.33 3.01 -0.66 2.02 -1 1 C-0.67 0.67 -0.34 0.34 0 0 Z " fill="#6ABF69" transform="translate(473,722)"/>
<path d="M0 0 C3.91211733 1.15585285 6.8745041 2.35534962 10 5 C6.21812119 6.83691257 4.05431692 7.15837626 0 6 C-1.125 2.25 -1.125 2.25 0 0 Z " fill="#6ABF69" transform="translate(441,647)"/>
<path d="M0 0 C3.97497544 3.40712181 5.86793788 7.32760855 8 12 C7.236875 11.62875 6.47375 11.2575 5.6875 10.875 C4.800625 10.58625 3.91375 10.2975 3 10 C2.01 10.66 1.02 11.32 0 12 C-1.125 5.25 -1.125 5.25 0 3 C0 2.01 0 1.02 0 0 Z " fill="#6ABF69" transform="translate(441,555)"/>
<path d="M0 0 C1.1875 2.0625 1.1875 2.0625 2 4 C1.34 4 0.68 4 0 4 C0 5.65 0 7.3 0 9 C-2.96404505 6.19195732 -5.44499019 3.81684226 -7 0 C-3.98968256 -0.93423645 -3.13349732 -1.04449911 0 0 Z " fill="#6ABF69" transform="translate(477,410)"/>
<path d="M0 0 C0.66666667 2.66666667 1.33333333 5.33333333 2 8 C2.99 8 3.98 8 5 8 C5.66 8 6.32 8 7 8 C7 9.65 7 11.3 7 13 C5.68 13 4.36 13 3 13 C3 12.34 3 11.68 3 11 C0.525 10.01 0.525 10.01 -2 9 C-1.34 6.03 -0.68 3.06 0 0 Z " fill="#6ABF69" transform="translate(683,643)"/>
<path d="M0 0 C0.33 0.66 0.66 1.32 1 2 C1.66 2 2.32 2 3 2 C1.9318153 7.11365014 0.76892524 12.07227969 -1 17 C-3.2195122 8.43902439 -3.2195122 8.43902439 -2 6 C-1.34 6 -0.68 6 0 6 C0 4.02 0 2.04 0 0 Z " fill="#6ABF69" transform="translate(292,477)"/>
<path d="M0 0 C-1.32 2.64 -2.64 5.28 -4 8 C-4.99 7.01 -5.98 6.02 -7 5 C-7.66 5.66 -8.32 6.32 -9 7 C-8.125 2.25 -8.125 2.25 -7 0 C-4 -1 -4 -1 0 0 Z " fill="#6ABF69" transform="translate(499,305)"/>
<path d="M0 0 C2.29141286 -0.05384521 4.58318188 -0.09272087 6.875 -0.125 C8.78925781 -0.15980469 8.78925781 -0.15980469 10.7421875 -0.1953125 C14 0 14 0 16 2 C11.5621439 3.11165232 7.23043614 3.11527763 2.6875 3.0625 C1.94693359 3.05798828 1.20636719 3.05347656 0.44335938 3.04882812 C-1.37112899 3.03712175 -3.18557534 3.01918898 -5 3 C-5 2.67 -5 2.34 -5 2 C-3.35 1.67 -1.7 1.34 0 1 C0 0.67 0 0.34 0 0 Z " fill="#6ABF69" transform="translate(495,667)"/>
<path d="M0 0 C2.31 0.33 4.62 0.66 7 1 C6.34 1.66 5.68 2.32 5 3 C5.66 3.33 6.32 3.66 7 4 C7 4.99 7 5.98 7 7 C3.7 6.01 0.4 5.02 -3 4 C-2.34 3.67 -1.68 3.34 -1 3 C-0.67 2.01 -0.34 1.02 0 0 Z " fill="#6ABF69" transform="translate(438,641)"/>
<path d="M0 0 C0.33 0.66 0.66 1.32 1 2 C2.65 2 4.3 2 6 2 C5.01 2.495 5.01 2.495 4 3 C3.30341637 4.65438613 2.63903117 6.32254318 2 8 C1.01 9.485 1.01 9.485 0 11 C-0.99 10.67 -1.98 10.34 -3 10 C-2.01 6.7 -1.02 3.4 0 0 Z " fill="#6ABF69" transform="translate(266,477)"/>
<path d="M0 0 C1.32 0.33 2.64 0.66 4 1 C3.67 2.98 3.34 4.96 3 7 C2.01 6.67 1.02 6.34 0 6 C-3.18288354 7.87178116 -3.18288354 7.87178116 -6 10 C-4.6302836 6.00499382 -2.74277578 3.19990508 0 0 Z " fill="#6ABF69" transform="translate(297,417)"/>
<path d="M0 0 C1.65 0.33 3.3 0.66 5 1 C3.63055898 3.94956528 2.12169591 6.52468811 0 9 C-0.66 9 -1.32 9 -2 9 C-3 7 -3 7 -3 4 C-2.34 4 -1.68 4 -1 4 C-0.67 2.68 -0.34 1.36 0 0 Z " fill="#6ABF69" transform="translate(468,372)"/>
<path d="M0 0 C-0.625 1.9375 -0.625 1.9375 -2 4 C-4.875 4.6875 -4.875 4.6875 -8 5 C-9.33737094 5.31674575 -10.67288808 5.64270064 -12 6 C-12 5.34 -12 4.68 -12 4 C-12.66 3.67 -13.32 3.34 -14 3 C-4.58997722 -0.44419134 -4.58997722 -0.44419134 0 0 Z " fill="#6ABF69" transform="translate(402,672)"/>
<path d="M0 0 C2 2.5 2 2.5 4 5 C4.763125 5.86625 5.52625 6.7325 6.3125 7.625 C6.869375 8.40875 7.42625 9.1925 8 10 C7.67 10.99 7.34 11.98 7 13 C6.67 12.34 6.34 11.68 6 11 C5.01 11.33 4.02 11.66 3 12 C0.60926555 8.17482487 0.44033448 4.40334476 0 0 Z " fill="#E4E9ED" transform="translate(577,322)"/>
<path d="M0 0 C2.76544722 3.45680903 4.84921278 7.14341602 7 11 C4.69 10.67 2.38 10.34 0 10 C-1.125 3.375 -1.125 3.375 0 0 Z " fill="#6ABF69" transform="translate(370,549)"/>
<path d="M0 0 C1.97179598 2.95769397 2.36929854 4.16417962 2.75 7.5625 C2.84796875 8.34753906 2.9459375 9.13257813 3.046875 9.94140625 C3 12 3 12 1 14 C-0.8475515 9.44270629 -2 5.93843886 -2 1 C-1.34 0.67 -0.68 0.34 0 0 Z " fill="#6ABF69" transform="translate(461,546)"/>
<path d="M0 0 C1.32 0.66 2.64 1.32 4 2 C3.41196203 5.02419525 2.77321882 8.01758453 2 11 C1.01 11 0.02 11 -1 11 C-2.26264601 6.70700357 -1.62950412 4.12168689 0 0 Z " fill="#6ABF69" transform="translate(412,393)"/>
<path d="M0 0 C0.5534764 2.07553648 1 3.84365964 1 6 C-0.62626404 7.38232443 -2.2925002 8.71937515 -4 10 C-4.66 9.67 -5.32 9.34 -6 9 C-6 5 -6 5 -4.6875 3.515625 C-3.125 2.34375 -1.5625 1.171875 0 0 Z " fill="#6ABF69" transform="translate(671,667)"/>
<path d="M0 0 C0.99 1.32 1.98 2.64 3 4 C2.01 4 1.02 4 0 4 C0.33 4.99 0.66 5.98 1 7 C1.03954234 9.33299825 1.04401732 11.66708189 1 14 C0.67 13.34 0.34 12.68 0 12 C-1.32 12.33 -2.64 12.66 -4 13 C-3.40895235 8.15340923 -2.02055843 4.39251833 0 0 Z " fill="#6ABF69" transform="translate(541,538)"/>
<path d="M0 0 C0.99 0.33 1.98 0.66 3 1 C3 1.66 3 2.32 3 3 C2.01 3 1.02 3 0 3 C0.33 4.98 0.66 6.96 1 9 C0.01 9.66 -0.98 10.32 -2 11 C-2.33 11.99 -2.66 12.98 -3 14 C-3.66 14 -4.32 14 -5 14 C-4.54636829 12.41531323 -4.08688548 10.83230076 -3.625 9.25 C-3.36976563 8.36828125 -3.11453125 7.4865625 -2.8515625 6.578125 C-2.0790066 4.23919428 -1.16374324 2.16557438 0 0 Z " fill="#6ABF69" transform="translate(299,470)"/>
<path d="M0 0 C0.33 0.66 0.66 1.32 1 2 C1.66 2 2.32 2 3 2 C3 2.66 3 3.32 3 4 C3.66 4 4.32 4 5 4 C5.33 4.99 5.66 5.98 6 7 C4.35 7.66 2.7 8.32 1 9 C1 10.65 1 12.3 1 14 C0.34 14 -0.32 14 -1 14 C-0.67 9.38 -0.34 4.76 0 0 Z " fill="#6ABF69" transform="translate(592,432)"/>
<path d="M0 0 C0 0.99 0 1.98 0 3 C-2.89690447 5.84952519 -5.26386827 6.42525449 -9.25 6.6875 C-10.14203125 6.75324219 -11.0340625 6.81898438 -11.953125 6.88671875 C-12.62859375 6.92410156 -13.3040625 6.96148437 -14 7 C-4.8739255 0 -4.8739255 0 0 0 Z " fill="#6ABF69" transform="translate(562,429)"/>
<path d="M0 0 C3.11057388 0.62211478 4.66257902 1.50116412 6.4453125 4.13671875 C7.68894732 6.40013413 8.87583369 8.6751284 10 11 C9.01 11.33 8.02 11.66 7 12 C5.02 8.535 5.02 8.535 3 5 C2.01 5.495 2.01 5.495 1 6 C0.67 4.02 0.34 2.04 0 0 Z " fill="#6ABF69" transform="translate(450,575)"/>
<path d="M0 0 C0.66 0.33 1.32 0.66 2 1 C1.67 3.31 1.34 5.62 1 8 C0.34 8 -0.32 8 -1 8 C-1 9.32 -1 10.64 -1 12 C-1.99 12.33 -2.98 12.66 -4 13 C-4.66 13.66 -5.32 14.32 -6 15 C-5.39644592 11.14974121 -4.23227397 8.13898841 -2.4375 4.6875 C-1.98246094 3.80449219 -1.52742188 2.92148437 -1.05859375 2.01171875 C-0.53458984 1.01591797 -0.53458984 1.01591797 0 0 Z " fill="#6ABF69" transform="translate(277,451)"/>
<path d="M0 0 C0.66 0.33 1.32 0.66 2 1 C2 1.66 2 2.32 2 3 C2.66 3.33 3.32 3.66 4 4 C3.6875 5.875 3.6875 5.875 3 8 C2.01 8.66 1.02 9.32 0 10 C-1.20628008 7.66785852 -2.1654738 5.50357861 -3 3 C-2.01 2.01 -1.02 1.02 0 0 Z " fill="#6ABF69" transform="translate(315,384)"/>
<path d="M0 0 C0.99 0 1.98 0 3 0 C3.33 2.31 3.66 4.62 4 7 C2.35 7.66 0.7 8.32 -1 9 C-1.625 6.1875 -1.625 6.1875 -2 3 C-1.34 2.01 -0.68 1.02 0 0 Z " fill="#6ABF69" transform="translate(554,294)"/>
<path d="M0 0 C0.66 0.33 1.32 0.66 2 1 C1.8125 2.875 1.8125 2.875 1 5 C-1.25 6.375 -1.25 6.375 -4 7 C-6.8125 6.125 -6.8125 6.125 -9 5 C-6.06626269 3.04417512 -3.21783702 1.43775696 0 0 Z " fill="#6ABF69" transform="translate(608,776)"/>
<path d="M0 0 C1.32 0.66 2.64 1.32 4 2 C3.01 2.495 3.01 2.495 2 3 C2 3.66 2 4.32 2 5 C3.32 5.66 4.64 6.32 6 7 C5.34 7.66 4.68 8.32 4 9 C3.01 9 2.02 9 1 9 C0.01 6.69 -0.98 4.38 -2 2 C-1.34 2 -0.68 2 0 2 C0 1.34 0 0.68 0 0 Z " fill="#6ABF69" transform="translate(323,662)"/>
<path d="M0 0 C0.99 0.33 1.98 0.66 3 1 C2.67 2.98 2.34 4.96 2 7 C1.34 7 0.68 7 0 7 C0 7.66 0 8.32 0 9 C-1.32 8.67 -2.64 8.34 -4 8 C-2.87548273 5.0280615 -1.77706209 2.66559313 0 0 Z " fill="#6ABF69" transform="translate(692,659)"/>
<path d="M0 0 C1.25955231 3.77865693 0.48087189 5.03411786 -0.9375 8.6875 C-1.31777344 9.68136719 -1.69804687 10.67523438 -2.08984375 11.69921875 C-2.39019531 12.45847656 -2.69054687 13.21773438 -3 14 C-3.66 13.67 -4.32 13.34 -5 13 C-4.67 9.37 -4.34 5.74 -4 2 C-3.34 2.66 -2.68 3.32 -2 4 C-1.34 2.68 -0.68 1.36 0 0 Z " fill="#6ABF69" transform="translate(271,460)"/>
<path d="M0 0 C1.9375 0.8125 1.9375 0.8125 4 2 C4.33 2.99 4.66 3.98 5 5 C2.35261084 6.4606285 1.10551666 7 -2 7 C-2.66 6.67 -3.32 6.34 -4 6 C-2.68 4.02 -1.36 2.04 0 0 Z " fill="#6ABF69" transform="translate(500,392)"/>
<path d="M0 0 C0 0.66 0 1.32 0 2 C-5.17578125 5.22265625 -5.17578125 5.22265625 -7 6 C-7.99 5.67 -8.98 5.34 -10 5 C-9.1875 3.0625 -9.1875 3.0625 -8 1 C-5.07175348 0.02391783 -3.04386724 -0.08226668 0 0 Z " fill="#6ABF69" transform="translate(549,739)"/>
<path d="M0 0 C2.475 0.495 2.475 0.495 5 1 C5.33 3.97 5.66 6.94 6 10 C4.68 9.34 3.36 8.68 2 8 C2.66 7.01 3.32 6.02 4 5 C3.01 5.33 2.02 5.66 1 6 C0 5 0 5 -0.0625 2.4375 C-0.041875 1.633125 -0.02125 0.82875 0 0 Z " fill="#6ABF69" transform="translate(403,539)"/>
<path d="M0 0 C0.99 0.33 1.98 0.66 3 1 C1.50871999 4.79598549 -0.65733441 6.71720399 -4 9 C-4.99 9 -5.98 9 -7 9 C-6.67 7.02 -6.34 5.04 -6 3 C-5.401875 3.185625 -4.80375 3.37125 -4.1875 3.5625 C-1.83591238 4.22093687 -1.83591238 4.22093687 1 3 C0.67 2.01 0.34 1.02 0 0 Z " fill="#6ABF69" transform="translate(553,518)"/>
<path d="M0 0 C0.66 0 1.32 0 2 0 C2.28875 0.763125 2.5775 1.52625 2.875 2.3125 C3.96269013 5.15029308 3.96269013 5.15029308 6 8 C5.625 10.1875 5.625 10.1875 5 12 C3.66666667 12 2.33333333 12 1 12 C0.67 8.04 0.34 4.08 0 0 Z " fill="#6ABF69" transform="translate(427,452)"/>
<path d="M0 0 C1.828125 0.22265625 1.828125 0.22265625 4 1 C5.484375 2.99609375 5.484375 2.99609375 6.75 5.4375 C7.39195312 6.64212891 7.39195312 6.64212891 8.046875 7.87109375 C9 10 9 10 9 12 C8.01 11.67 7.02 11.34 6 11 C6.33 10.34 6.66 9.68 7 9 C6.37609375 8.91878906 5.7521875 8.83757812 5.109375 8.75390625 C3 8 3 8 1.953125 6.15234375 C1.60507812 5.05599609 1.60507812 5.05599609 1.25 3.9375 C1.00765625 3.20402344 0.7653125 2.47054688 0.515625 1.71484375 C0.34546875 1.14894531 0.1753125 0.58304687 0 0 Z " fill="#6ABF69" transform="translate(595,351)"/>
<path d="M0 0 C0 1.98 0 3.96 0 6 C-0.66 6 -1.32 6 -2 6 C-2.33 6.66 -2.66 7.32 -3 8 C-7 3.25 -7 3.25 -7 1 C-1.125 0 -1.125 0 0 0 Z " fill="#323B45" transform="translate(534,251)"/>
<path d="M0 0 C0.66 1.98 1.32 3.96 2 6 C-2.455 6.495 -2.455 6.495 -7 7 C-3.5 0 -3.5 0 0 0 Z " fill="#6ABF69" transform="translate(557,561)"/>
<path d="M0 0 C0.99 0.99 1.98 1.98 3 3 C1.85546875 4.55078125 1.85546875 4.55078125 0 6 C-2.69921875 5.85546875 -2.69921875 5.85546875 -5.6875 5.1875 C-6.68136719 4.97480469 -7.67523438 4.76210938 -8.69921875 4.54296875 C-9.45847656 4.36378906 -10.21773438 4.18460937 -11 4 C-7.01647791 1.69096728 -4.49885947 2.13483472 0 3 C0 2.01 0 1.02 0 0 Z " fill="#6ABF69" transform="translate(411,497)"/>
<path d="M0 0 C0.66 2.97 1.32 5.94 2 9 C1.01 9 0.02 9 -1 9 C-1.33 7.68 -1.66 6.36 -2 5 C-2.66 5 -3.32 5 -4 5 C-4.33 3.68 -4.66 2.36 -5 1 C-3 0 -3 0 0 0 Z " fill="#6ABF69" transform="translate(734,481)"/>
<path d="M0 0 C0.33 0 0.66 0 1 0 C2.21513944 6.3187251 2.21513944 6.3187251 1.25 9.375 C0 11 0 11 -3 12 C-2.67 9.03 -2.34 6.06 -2 3 C-1.34 3 -0.68 3 0 3 C0 2.01 0 1.02 0 0 Z " fill="#6ABF69" transform="translate(621,429)"/>
<path d="M0 0 C0.66 0.33 1.32 0.66 2 1 C-0.59915982 3.98138921 -2.29077324 5.78723197 -6.125 6.9375 C-9 7 -9 7 -12 5 C-10.04578965 4.13644222 -8.08648653 3.28440066 -6.125 2.4375 C-5.03445313 1.96183594 -3.94390625 1.48617187 -2.8203125 0.99609375 C-1.88960937 0.66738281 -0.95890625 0.33867188 0 0 Z " fill="#D9E4E6" transform="translate(562,644)"/>
<path d="M0 0 C1.125 1.625 1.125 1.625 2 4 C1.3125 7.1875 1.3125 7.1875 0 10 C-0.99 10.33 -1.98 10.66 -3 11 C-3 6.17156286 -2.67309907 4.0096486 0 0 Z " fill="#323B44" transform="translate(349,397)"/>
<path d="M0 0 C0.103125 0.639375 0.20625 1.27875 0.3125 1.9375 C0.539375 2.618125 0.76625 3.29875 1 4 C1.99 4.33 2.98 4.66 4 5 C4 5.66 4 6.32 4 7 C4.66 7.66 5.32 8.32 6 9 C5.34 9.66 4.68 10.32 4 11 C1.69 8.36 -0.62 5.72 -3 3 C-2.01 2.67 -1.02 2.34 0 2 C0 1.34 0 0.68 0 0 Z " fill="#E4E9F0" transform="translate(653,396)"/>
<path d="M0 0 C0.95904856 3.83619425 0.91892116 5.32431536 0 9 C-3 9 -3 9 -7 7 C-4.69 4.69 -2.38 2.38 0 0 Z " fill="#E0E7ED" transform="translate(327,381)"/>
<path d="M0 0 C0 0.99 0 1.98 0 3 C-1.65 3 -3.3 3 -5 3 C-4.34 2.67 -3.68 2.34 -3 2 C-4.32 1.67 -5.64 1.34 -7 1 C-7.33 1.66 -7.66 2.32 -8 3 C-8.99 2.67 -9.98 2.34 -11 2 C-10.67 1.01 -10.34 0.02 -10 -1 C-6.36375521 -2.75078453 -3.58607386 -1.38552854 0 0 Z " fill="#E8EFF1" transform="translate(346,380)"/>
<path d="M0 0 C0.66 0 1.32 0 2 0 C2.99 3.3 3.98 6.6 5 10 C4.01 10.33 3.02 10.66 2 11 C2 10.01 2 9.02 2 8 C1.34 7.67 0.68 7.34 0 7 C-1.26229508 2.52459016 -1.26229508 2.52459016 0 0 Z " fill="#343A44" transform="translate(699,472)"/>
<path d="M0 0 C1.6510403 0.39553053 3.2958515 0.81713897 4.9375 1.25 C5.85402344 1.48203125 6.77054687 1.7140625 7.71484375 1.953125 C10 3 10 3 10.81640625 5.109375 C10.87699219 5.73328125 10.93757813 6.3571875 11 7 C10.01 7.495 10.01 7.495 9 8 C7.08984375 7.109375 7.08984375 7.109375 4.9375 5.75 C4.22464844 5.31171875 3.51179688 4.8734375 2.77734375 4.421875 C1 3 1 3 0 0 Z " fill="#374249" transform="translate(381,737)"/>
<path d="M0 0 C3.26008643 3.16952847 6.22237877 6.39937989 9 10 C4.74278702 9.52697634 2.67053918 7.18981069 0 4 C0 2.68 0 1.36 0 0 Z " fill="#E3E7EB" transform="translate(332,696)"/>
<path d="M0 0 C0.33 0.66 0.66 1.32 1 2 C2.32 1.67 3.64 1.34 5 1 C5.66 2.65 6.32 4.3 7 6 C6.34 6.66 5.68 7.32 5 8 C2.5 6.8125 2.5 6.8125 0 5 C-0.3125 2.3125 -0.3125 2.3125 0 0 Z " fill="#445059" transform="translate(464,561)"/>
<path d="M0 0 C0 1.65 0 3.3 0 5 C-6.625 7.875 -6.625 7.875 -10 9 C-10 8.34 -10 7.68 -10 7 C-8.06640625 5.2734375 -8.06640625 5.2734375 -5.5625 3.375 C-4.73878906 2.74335938 -3.91507812 2.11171875 -3.06640625 1.4609375 C-1 0 -1 0 0 0 Z " fill="#869198" transform="translate(409,443)"/>
<path d="M0 0 C1.32 0 2.64 0 4 0 C4.33 0.99 4.66 1.98 5 3 C2.94766315 5.2477975 1.99332739 6.0022242 -1 7 C-1.33 5.35 -1.66 3.7 -2 2 C-1.34 2 -0.68 2 0 2 C0 1.34 0 0.68 0 0 Z " fill="#363F49" transform="translate(434,425)"/>
<path d="M0 0 C2.62187494 1.04874998 3.79371361 1.64931313 5.25 4.125 C5.4975 4.74375 5.745 5.3625 6 6 C3.525 7.485 3.525 7.485 1 9 C0.29925156 5.846632 0 3.27275026 0 0 Z " fill="#F1F6F8" transform="translate(561,303)"/>
<path d="M0 0 C0.12375 0.721875 0.2475 1.44375 0.375 2.1875 C0.9904931 4.95721894 1.88444374 7.3970354 3 10 C2.01 10 1.02 10 0 10 C-4 3.25 -4 3.25 -4 1 C-2 0 -2 0 0 0 Z " fill="#D8DFE4" transform="translate(531,427)"/>
<path d="M0 0 C2.33944736 0.28730055 4.6739143 0.61936779 7 1 C7 1.66 7 2.32 7 3 C5.33720673 4.0064275 3.67016516 5.00585407 2 6 C1.34 6.99 0.68 7.98 0 9 C-0.87890625 2.84765625 -0.87890625 2.84765625 -1 1 C-0.67 0.67 -0.34 0.34 0 0 Z " fill="#374047" transform="translate(506,408)"/>
<path d="M0 0 C2.31 0 4.62 0 7 0 C7 0.99 7 1.98 7 3 C7.99 3.33 8.98 3.66 10 4 C10 4.66 10 5.32 10 6 C6.00452264 5.38531118 3.22493358 3.34540624 0 1 C0 0.67 0 0.34 0 0 Z " fill="#D1D5D9" transform="translate(480,404)"/>
<path d="M0 0 C2 0 2 0 3.625 1.5 C4.07875 1.995 4.5325 2.49 5 3 C5.66 2.67 6.32 2.34 7 2 C7 3.65 7 5.3 7 7 C4.69 6.34 2.38 5.68 0 5 C-0.5625 3.0625 -0.5625 3.0625 -1 1 C-0.67 0.67 -0.34 0.34 0 0 Z " fill="#F6F8FB" transform="translate(504,264)"/>
<path d="M0 0 C2.4375 0.375 2.4375 0.375 5 1 C5.33 1.66 5.66 2.32 6 3 C5.67 3.66 5.34 4.32 5 5 C4.34 5 3.68 5 3 5 C2.67 4.01 2.34 3.02 2 2 C1.34 1.34 0.68 0.68 0 0 Z M2 5 C2.33 5.66 2.66 6.32 3 7 C2.34 6.67 1.68 6.34 1 6 C1.33 5.67 1.66 5.34 2 5 Z M-1 6 C0.32 6.99 1.64 7.98 3 9 C2.67 9.66 2.34 10.32 2 11 C1.01 10.67 0.02 10.34 -1 10 C-1 8.68 -1 7.36 -1 6 Z " fill="#343F4A" transform="translate(385,726)"/>
<path d="M0 0 C0.99 0 1.98 0 3 0 C3.33 1.65 3.66 3.3 4 5 C2 6 2 6 -1 6 C-1.66 5.34 -2.32 4.68 -3 4 C-2.67 3.01 -2.34 2.02 -2 1 C-2 1.66 -2 2.32 -2 3 C-1.34 3 -0.68 3 0 3 C0 2.01 0 1.02 0 0 Z " fill="#EEF0F3" transform="translate(315,713)"/>
<path d="M0 0 C0.33 0 0.66 0 1 0 C1.33 2.97 1.66 5.94 2 9 C-0.475 10.485 -0.475 10.485 -3 12 C-2.40075776 7.80530429 -1.42500059 3.99000166 0 0 Z " fill="#DDE6EB" transform="translate(285,599)"/>
<path d="M0 0 C0.66 0 1.32 0 2 0 C2.66 1.32 3.32 2.64 4 4 C3.01 4 2.02 4 1 4 C1.66 5.65 2.32 7.3 3 9 C2.01 9.33 1.02 9.66 0 10 C-0.66 9.34 -1.32 8.68 -2 8 C-1.63723355 5.17042171 -0.90305236 2.70915709 0 0 Z " fill="#323A46" transform="translate(675,430)"/>
<path d="M0 0 C2.97 0.495 2.97 0.495 6 1 C6.33 1.99 6.66 2.98 7 4 C5.5625 6.1875 5.5625 6.1875 4 8 C2.35 6.02 0.7 4.04 -1 2 C-0.67 1.34 -0.34 0.68 0 0 Z " fill="#36414A" transform="translate(345,377)"/>
<path d="M0 0 C1.32 0.99 2.64 1.98 4 3 C3.49396008 5.16874252 3.00016187 6.99967627 2 9 C1.34 9 0.68 9 0 9 C-1.125 2.25 -1.125 2.25 0 0 Z " fill="#F3F6F7" transform="translate(425,356)"/>
<path d="M0 0 C0.66 0.33 1.32 0.66 2 1 C1.45773019 4.79588866 -0.20127563 6.47211993 -3 9 C-3.99 8.67 -4.98 8.34 -6 8 C-4.02 5.36 -2.04 2.72 0 0 Z " fill="#3A4148" transform="translate(456,323)"/>
<path d="M0 0 C1.70884005 1.62339805 3.37446717 3.29319053 5 5 C5 5.66 5 6.32 5 7 C3.02 6.34 1.04 5.68 -1 5 C-1 1 -1 1 0 0 Z " fill="#F9F9FB" transform="translate(546,320)"/>
<path d="M0 0 C-0.33 0.99 -0.66 1.98 -1 3 C-4.5625 4.6875 -4.5625 4.6875 -8 6 C-8.33 4.68 -8.66 3.36 -9 2 C-2.25 0 -2.25 0 0 0 Z " fill="#EDEFF1" transform="translate(619,769)"/>
<path d="M0 0 C2.64 0 5.28 0 8 0 C4.53258866 2.95749791 1.13126473 5.07848152 -3 7 C-3 6.34 -3 5.68 -3 5 C-2 4 -1 3 0 2 C0 1.34 0 0.68 0 0 Z " fill="#3A434A" transform="translate(609,739)"/>
<path d="M0 0 C1.10396298 4.41585194 0.87357474 4.36994894 -1 8 C-0.67 8.99 -0.34 9.98 0 11 C-1.65 11.33 -3.3 11.66 -5 12 C-3.35 8.04 -1.7 4.08 0 0 Z " fill="#3A4249" transform="translate(723,658)"/>
<path d="M0 0 C0.66 0 1.32 0 2 0 C3.4783226 2.95664519 3.06032783 5.74229737 3 9 C2.34 7.68 1.68 6.36 1 5 C0.01 5 -0.98 5 -2 5 C-2.66 4.34 -3.32 3.68 -4 3 C-2.68 2.67 -1.36 2.34 0 2 C0 1.34 0 0.68 0 0 Z " fill="#D9DEE1" transform="translate(681,634)"/>
<path d="M0 0 C1.1875 1.6875 1.1875 1.6875 2 4 C0.625 6.75 0.625 6.75 -1 9 C-1.33 8.34 -1.66 7.68 -2 7 C-2.66 7 -3.32 7 -4 7 C-2.92598892 4.08482708 -2.22189824 2.22189824 0 0 Z " fill="#EDEFF3" transform="translate(541,577)"/>
<path d="M0 0 C2.31 1.98 4.62 3.96 7 6 C6.01 6.495 6.01 6.495 5 7 C5 7.66 5 8.32 5 9 C4.34 8.67 3.68 8.34 3 8 C3 7.34 3 6.68 3 6 C1.68 5.67 0.36 5.34 -1 5 C-0.67 3.35 -0.34 1.7 0 0 Z " fill="#43484E" transform="translate(433,546)"/>
<path d="M0 0 C1.15392455 2.3078491 1.53437166 4.47230331 2 7 C0.02 7.99 -1.96 8.98 -4 10 C-3.34 7.69 -2.68 5.38 -2 3 C-2.66 2.67 -3.32 2.34 -4 2 C-2.68 1.34 -1.36 0.68 0 0 Z " fill="#444D54" transform="translate(539,433)"/>
<path d="M0 0 C0.66 0 1.32 0 2 0 C2 0.99 2 1.98 2 3 C1.34 3 0.68 3 0 3 C0.33 3.825 0.66 4.65 1 5.5 C2.16782809 9.5873983 2.1458885 12.76923344 2 17 C1.67 17 1.34 17 1 17 C0.66104344 15.27192682 0.32908475 13.54248026 0 11.8125 C-0.185625 10.84957031 -0.37125 9.88664062 -0.5625 8.89453125 C-0.97069173 6.19390558 -1.15486792 3.72470754 -1 1 C-0.67 0.67 -0.34 0.34 0 0 Z " fill="#B5BFC7" transform="translate(382,431)"/>
<path d="M0 0 C2.31 0.66 4.62 1.32 7 2 C7 2.99 7 3.98 7 5 C6.34 5 5.68 5 5 5 C5 5.66 5 6.32 5 7 C2 6 2 6 0 3 C0 2.01 0 1.02 0 0 Z " fill="#333B42" transform="translate(543,273)"/>
<path d="M0 0 C-0.99 1.32 -1.98 2.64 -3 4 C-5.64 3.67 -8.28 3.34 -11 3 C-7.74003139 -0.25996861 -4.40088745 -1.46696248 0 0 Z " fill="#3A4249" transform="translate(575,730)"/>
<path d="M0 0 C0.66 0.33 1.32 0.66 2 1 C1.67 2.65 1.34 4.3 1 6 C0.01 6.33 -0.98 6.66 -2 7 C-2 6.34 -2 5.68 -2 5 C-3.32 4.34 -4.64 3.68 -6 3 C-4.03533587 1.93224776 -2.03144641 0.93446535 0 0 Z " fill="#E2E9EA" transform="translate(556,704)"/>
<path d="M0 0 C1.32 1.32 2.64 2.64 4 4 C2.96875 4.144375 1.9375 4.28875 0.875 4.4375 C-2.42549813 4.91660457 -5.71268341 5.43875083 -9 6 C-6.11964908 3.75972706 -3.15133488 1.83827868 0 0 Z " fill="#373F46" transform="translate(547,683)"/>
<path d="M0 0 C2 4 2 4 1.125 7.75 C0.75375 8.8225 0.3825 9.895 0 11 C-0.99 10.34 -1.98 9.68 -3 9 C-2.01 6.03 -1.02 3.06 0 0 Z " fill="#252E37" transform="translate(724,658)"/>
<path d="M0 0 C0 0.99 0 1.98 0 3 C-2.875 3.625 -2.875 3.625 -6 4 C-6.66 3.34 -7.32 2.68 -8 2 C-7.34 2 -6.68 2 -6 2 C-6 1.34 -6 0.68 -6 0 C-3.50907189 -1.24546405 -2.58919267 -0.7767578 0 0 Z " fill="#2E3C44" transform="translate(390,642)"/>
<path d="M0 0 C1.65 0 3.3 0 5 0 C4.01 2.31 3.02 4.62 2 7 C1.01 6.67 0.02 6.34 -1 6 C-0.67 4.02 -0.34 2.04 0 0 Z " fill="#343F48" transform="translate(527,421)"/>
<path d="M0 0 C-0.61277612 2.96175123 -1.25372522 4.38058783 -3 7 C-3.99 6.67 -4.98 6.34 -6 6 C-5.6875 4.125 -5.6875 4.125 -5 2 C-2 0 -2 0 0 0 Z " fill="#DAE0E8" transform="translate(513,411)"/>
<path d="M0 0 C0.99 0.33 1.98 0.66 3 1 C3.6875 3.0625 3.6875 3.0625 4 5 C2.35 5.33 0.7 5.66 -1 6 C-1.33 5.01 -1.66 4.02 -2 3 C-1.34 2.01 -0.68 1.02 0 0 Z " fill="#DBE2EA" transform="translate(499,304)"/>
<path d="M0 0 C0.66 0.33 1.32 0.66 2 1 C0.75023244 4.65316671 0.32901247 5.78065836 -3 8 C-3.33 6.35 -3.66 4.7 -4 3 C-2.68 2.01 -1.36 1.02 0 0 Z " fill="#F5F9FD" transform="translate(462,270)"/>
<path d="M0 0 C0 0.99 0 1.98 0 3 C0.66 3 1.32 3 2 3 C1.67 4.65 1.34 6.3 1 8 C-1.475 7.01 -1.475 7.01 -4 6 C-2.84826645 3.53199953 -1.95216435 1.95216435 0 0 Z " fill="#EBEEF2" transform="translate(651,712)"/>
<path d="M0 0 C0.66 0.33 1.32 0.66 2 1 C1.60196439 3.88575819 1.20990931 4.82189513 -1.0625 6.75 C-1.701875 7.1625 -2.34125 7.575 -3 8 C-3 7.34 -3 6.68 -3 6 C-3.66 5.67 -4.32 5.34 -5 5 C-5 4.01 -5 3.02 -5 2 C-3.68 2.33 -2.36 2.66 -1 3 C-0.67 2.01 -0.34 1.02 0 0 Z " fill="#E8EEF2" transform="translate(625,707)"/>
<path d="M0 0 C1.32 0.33 2.64 0.66 4 1 C4 1.66 4 2.32 4 3 C5.98 3.66 7.96 4.32 10 5 C9.34 6.32 8.68 7.64 8 9 C6.66368764 7.6905332 5.33102075 6.37734515 4 5.0625 C3.2575 4.33160156 2.515 3.60070312 1.75 2.84765625 C0 1 0 1 0 0 Z " fill="#E9ECEF" transform="translate(460,586)"/>
<path d="M0 0 C2.29013653 3.4352048 2.17842973 4.985331 2 9 C0.68 9.33 -0.64 9.66 -2 10 C-1.34 6.7 -0.68 3.4 0 0 Z " fill="#DCE4E9" transform="translate(260,499)"/>
<path d="M0 0 C0.66 0.33 1.32 0.66 2 1 C2 2.65 2 4.3 2 6 C-1.75 7.125 -1.75 7.125 -4 6 C-3.0022242 3.00667261 -2.2477975 2.05233685 0 0 Z " fill="#BCC5CC" transform="translate(405,430)"/>
<path d="M0 0 C0.99 0.33 1.98 0.66 3 1 C1.87548273 3.9719385 0.77706209 6.33440687 -1 9 C-2.1875 6.75 -2.1875 6.75 -3 4 C-1.625 1.6875 -1.625 1.6875 0 0 Z " fill="#323C46" transform="translate(322,430)"/>
<path d="M0 0 C0.66 0 1.32 0 2 0 C2.33 1.32 2.66 2.64 3 4 C1.02 4.99 -0.96 5.98 -3 7 C-3.33 6.34 -3.66 5.68 -4 5 C-3.34 5 -2.68 5 -2 5 C-1.7834375 4.0409375 -1.7834375 4.0409375 -1.5625 3.0625 C-1 1 -1 1 0 0 Z " fill="#434D55" transform="translate(533,420)"/>
<path d="M0 0 C4 0 4 0 6.3125 1.75 C8 4 8 4 7.75 6.25 C7.5025 6.8275 7.255 7.405 7 8 C4.35247996 5.42215154 2.05567935 3.08351902 0 0 Z " fill="#E4E6EB" transform="translate(660,410)"/>
<path d="M0 0 C1.12153461 2.24306922 1.37705159 4.01641271 1.6875 6.5 C1.79449219 7.2940625 1.90148437 8.088125 2.01171875 8.90625 C2 11 2 11 0 13 C-1.4617773 8.6146681 -2.44935236 5.47981638 -1 1 C-0.67 0.67 -0.34 0.34 0 0 Z " fill="#3B434D" transform="translate(615,379)"/>
<path d="M0 0 C0 0.66 0 1.32 0 2 C-4.51718381 3.36884358 -7.58774263 2.47075246 -12 1 C-12 0.67 -12 0.34 -12 0 C-3.42857143 -1.28571429 -3.42857143 -1.28571429 0 0 Z " fill="#DEE8EA" transform="translate(540,771)"/>
<path d="M0 0 C0.66 1.98 1.32 3.96 2 6 C0.02 5.34 -1.96 4.68 -4 4 C-4 3.01 -4 2.02 -4 1 C-2 0 -2 0 0 0 Z M1 2 C3 3 3 3 3 3 Z " fill="#E8EBEE" transform="translate(452,737)"/>
<path d="M0 0 C0.66 0.66 1.32 1.32 2 2 C-0.64 2.66 -3.28 3.32 -6 4 C-6.66 3.01 -7.32 2.02 -8 1 C-5.23749964 -0.38125018 -3.05268901 -0.19079306 0 0 Z " fill="#D8E1E6" transform="translate(400,698)"/>
<path d="M0 0 C1.32 0 2.64 0 4 0 C4.33 1.65 4.66 3.3 5 5 C4.01 5.66 3.02 6.32 2 7 C1.01 5.02 0.02 3.04 -1 1 C-0.67 0.67 -0.34 0.34 0 0 Z " fill="#E7EBEF" transform="translate(290,683)"/>
<path d="M0 0 C0.66 0.33 1.32 0.66 2 1 C2 1.33 2 1.66 2 2 C3.32 2 4.64 2 6 2 C6 2.66 6 3.32 6 4 C2.625 4.625 2.625 4.625 -1 5 C-1.66 4.34 -2.32 3.68 -3 3 C-2.01 2.01 -1.02 1.02 0 0 Z " fill="#2E3C45" transform="translate(523,658)"/>
<path d="M0 0 C0.99 0 1.98 0 3 0 C3.66 0.99 4.32 1.98 5 3 C3.68 4.65 2.36 6.3 1 8 C-1 5 -1 5 -0.625 2.3125 C-0.41875 1.549375 -0.2125 0.78625 0 0 Z " fill="#34414D" transform="translate(331,633)"/>
<path d="M0 0 C1.99788438 0.34578768 3.99759451 0.68143549 6 1 C6 1.33 6 1.66 6 2 C0.72 2 -4.56 2 -10 2 C-10 1.67 -10 1.34 -10 1 C-6.18438427 -0.47421517 -3.89659938 -1.33945604 0 0 Z " fill="#DAE1E1" transform="translate(572,589)"/>
<path d="M0 0 C0.99 0.33 1.98 0.66 3 1 C3 1.66 3 2.32 3 3 C3.66 3 4.32 3 5 3 C5.33 2.34 5.66 1.68 6 1 C6.66 1.66 7.32 2.32 8 3 C4.5647952 5.29013653 3.014669 5.17842973 -1 5 C-0.67 3.35 -0.34 1.7 0 0 Z " fill="#FBFCFE" transform="translate(562,585)"/>
<path d="M0 0 C1.67540664 0.64438717 3.34183216 1.31246699 5 2 C5.99 2 6.98 2 8 2 C7.67 2.99 7.34 3.98 7 5 C3.17902761 4.46930939 0.93828597 3.50298434 -2 1 C-1.34 0.67 -0.68 0.34 0 0 Z " fill="#38454D" transform="translate(478,571)"/>
<path d="M0 0 C0.33 0.99 0.66 1.98 1 3 C1.99 3.33 2.98 3.66 4 4 C3.34 4 2.68 4 2 4 C1.67 4.99 1.34 5.98 1 7 C0.34 7 -0.32 7 -1 7 C-1.66 5.35 -2.32 3.7 -3 2 C-2.01 1.34 -1.02 0.68 0 0 Z " fill="#D8DEE7" transform="translate(537,441)"/>
<path d="M0 0 C0.33 0.99 0.66 1.98 1 3 C1.66 3 2.32 3 3 3 C3.33 4.32 3.66 5.64 4 7 C3.01 7.33 2.02 7.66 1 8 C-0.98 4.535 -0.98 4.535 -3 1 C-2.01 0.67 -1.02 0.34 0 0 Z " fill="#384349" transform="translate(595,342)"/>
<path d="M0 0 C0.33 0.66 0.66 1.32 1 2 C1.66 2 2.32 2 3 2 C3.33 1.34 3.66 0.68 4 0 C4.99 1.65 5.98 3.3 7 5 C6.34 5.66 5.68 6.32 5 7 C2.5 5.1875 2.5 5.1875 0 3 C0 2.01 0 1.02 0 0 Z " fill="#363D46" transform="translate(531,311)"/>
<path d="M0 0 C2.875 0.25 2.875 0.25 6 1 C7.375 3.0625 7.375 3.0625 8 5 C5.36 4.34 2.72 3.68 0 3 C0 2.01 0 1.02 0 0 Z " fill="#344245" transform="translate(434,761)"/>
<path d="M0 0 C5.75 1.75 5.75 1.75 8 4 C4.67465243 5.10844919 2.37817425 4.84454356 -1 4 C-0.67 2.68 -0.34 1.36 0 0 Z " fill="#E7EFF3" transform="translate(401,751)"/>
<path d="M0 0 C0 1.65 0 3.3 0 5 C-1.98 5.66 -3.96 6.32 -6 7 C-5.60799596 4.15797072 -5.2043974 3.17884772 -3 1.25 C-1 0 -1 0 0 0 Z " fill="#E7ECEE" transform="translate(636,726)"/>
<path d="M0 0 C-1.20727327 3.62181982 -2.59418688 5.29709344 -6 7 C-6.66 6.34 -7.32 5.68 -8 5 C-7.34 5 -6.68 5 -6 5 C-5.896875 4.360625 -5.79375 3.72125 -5.6875 3.0625 C-5.460625 2.381875 -5.23375 1.70125 -5 1 C-2 0 -2 0 0 0 Z " fill="#E7EDF2" transform="translate(382,703)"/>
<path d="M0 0 C4 4.625 4 4.625 4 8 C2.0625 7.1875 2.0625 7.1875 0 6 C-1 3 -1 3 0 0 Z " fill="#353C45" transform="translate(291,688)"/>
<path d="M0 0 C2.32472205 2.85306797 3.7508258 5.54074837 5 9 C0.23634558 6.5571003 0.23634558 6.5571003 -0.875 3.9375 C-1 2 -1 2 0 0 Z " fill="#DEE4EA" transform="translate(306,658)"/>
<path d="M0 0 C1.32 0 2.64 0 4 0 C3 3 3 3 0.0625 4.6875 C-3 6 -3 6 -5 6 C-5 5.34 -5 4.68 -5 4 C-4.360625 3.71125 -3.72125 3.4225 -3.0625 3.125 C-0.84793921 2.17176549 -0.84793921 2.17176549 0 0 Z " fill="#E5E9EC" transform="translate(597,580)"/>
<path d="M0 0 C0.66 0 1.32 0 2 0 C2.33 0.66 2.66 1.32 3 2 C3.66 1.67 4.32 1.34 5 1 C4.75 2.875 4.75 2.875 4 5 C1.9375 6.25 1.9375 6.25 0 7 C-0.38133299 5.0085944 -0.71325582 3.00720923 -1 1 C-0.67 0.67 -0.34 0.34 0 0 Z " fill="#EDF0F5" transform="translate(362,524)"/>
<path d="M0 0 C4 2 4 2 6 5 C5.01 5.495 5.01 5.495 4 6 C3.01 7.485 3.01 7.485 2 9 C1.34 6.03 0.68 3.06 0 0 Z " fill="#DAE4E5" transform="translate(504,514)"/>
<path d="M0 0 C0.99 0.99 1.98 1.98 3 3 C2.67 3.66 2.34 4.32 2 5 C-0.97 4.67 -3.94 4.34 -7 4 C-4.68143083 2.45428722 -2.49361571 1.20381448 0 0 Z " fill="#353F46" transform="translate(549,487)"/>
<path d="M0 0 C-0.66 0 -1.32 0 -2 0 C-2 0.66 -2 1.32 -2 2 C-1.34 2.33 -0.68 2.66 0 3 C-2.375 3.625 -2.375 3.625 -5 4 C-5.66 3.34 -6.32 2.68 -7 2 C-7.66 1.67 -8.32 1.34 -9 1 C-5.57367167 -0.61798838 -3.61944899 -1.34053666 0 0 Z " fill="#D4D8DE" transform="translate(450,411)"/>
<path d="M0 0 C4.875 4.625 4.875 4.625 6 8 C5.34 8.66 4.68 9.32 4 10 C1.16625119 6.79663178 0.4794463 4.21912747 0 0 Z " fill="#353B43" transform="translate(504,397)"/>
<path d="M0 0 C1.98 0.495 1.98 0.495 4 1 C4 2.32 4 3.64 4 5 C3.34 5 2.68 5 2 5 C1.01 8.465 1.01 8.465 0 12 C-1.31157516 9.37684968 -0.89649988 7.76966564 -0.5625 4.875 C-0.46066406 3.96492188 -0.35882812 3.05484375 -0.25390625 2.1171875 C-0.17011719 1.41851562 -0.08632813 0.71984375 0 0 Z " fill="#45505A" transform="translate(547,392)"/>
<path d="M0 0 C-2.31 1.65 -4.62 3.3 -7 5 C-7.33 3.35 -7.66 1.7 -8 0 C-4.63458162 -1.08174162 -3.70152678 -0.92538169 0 0 Z " fill="#313F43" transform="translate(657,378)"/>
<path d="M0 0 C-1.1875 1.5625 -1.1875 1.5625 -3 3 C-5.6875 2.6875 -5.6875 2.6875 -8 2 C-8 1.34 -8 0.68 -8 0 C-4.71303767 -0.79953138 -3.28976808 -1.09658936 0 0 Z " fill="#EBEFEF" transform="translate(583,786)"/>
<path d="M0 0 C0.66 0.33 1.32 0.66 2 1 C1.505 1.433125 1.01 1.86625 0.5 2.3125 C-1.33218192 3.99740483 -1.33218192 3.99740483 -1 7 C-1.66 7 -2.32 7 -3 7 C-3 6.34 -3 5.68 -3 5 C-4.32 4.67 -5.64 4.34 -7 4 C-6.1028125 3.566875 -6.1028125 3.566875 -5.1875 3.125 C-2.80672208 1.95257974 -2.80672208 1.95257974 0 0 Z " fill="#DFE8EA" transform="translate(525,663)"/>
<path d="M0 0 C0.99 0.99 1.98 1.98 3 3 C2.67 3.99 2.34 4.98 2 6 C0.35 5.67 -1.3 5.34 -3 5 C-2.01 3.35 -1.02 1.7 0 0 Z " fill="#E7EFF4" transform="translate(547,529)"/>
<path d="M0 0 C0.8353125 0.556875 0.8353125 0.556875 1.6875 1.125 C-1.7775 2.61 -1.7775 2.61 -5.3125 4.125 C-5.9725 3.135 -6.6325 2.145 -7.3125 1.125 C-2.88173077 -1.09038462 -2.88173077 -1.09038462 0 0 Z " fill="#323F47" transform="translate(576.3125,505.875)"/>
<path d="M0 0 C1.3921875 0.3403125 1.3921875 0.3403125 2.8125 0.6875 C-0.12578597 3.19048434 -2.36652761 4.15680939 -6.1875 4.6875 C-6.1875 2.6875 -6.1875 2.6875 -5.0625 1 C-3.1875 -0.3125 -3.1875 -0.3125 0 0 Z " fill="#DEE4E9" transform="translate(548.1875,485.3125)"/>
<path d="M0 0 C0.66 0 1.32 0 2 0 C3.78305524 2.63892176 4.99059621 4.97178863 6 8 C2.17053157 6.54744301 0.87949705 4.57104439 -1 1 C-0.67 0.67 -0.34 0.34 0 0 Z " fill="#D9DEE5" transform="translate(502,481)"/>
<path d="M0 0 C0.99 0 1.98 0 3 0 C3.33 0.99 3.66 1.98 4 3 C3.34 3 2.68 3 2 3 C1.34 4.65 0.68 6.3 0 8 C-0.99 7.67 -1.98 7.34 -3 7 C-2.34 7 -1.68 7 -1 7 C-0.67 4.69 -0.34 2.38 0 0 Z " fill="#333D47" transform="translate(534,436)"/>
<path d="M0 0 C2.95183101 2.95183101 3.08663988 5.95511947 4 10 C3.01 10 2.02 10 1 10 C0.855625 9.2575 0.71125 8.515 0.5625 7.75 C0.21921582 6.07172178 -0.16651881 4.40053228 -0.625 2.75 C-0.74875 2.1725 -0.8725 1.595 -1 1 C-0.67 0.67 -0.34 0.34 0 0 Z " fill="#393E48" transform="translate(585,388)"/>
<path d="M0 0 C0.99 1.32 1.98 2.64 3 4 C2.690625 4.5775 2.38125 5.155 2.0625 5.75 C1.07416636 7.84294184 0.4831387 9.74535275 0 12 C-0.33 12 -0.66 12 -1 12 C-1.02712066 10.56260487 -1.04645067 9.12506137 -1.0625 7.6875 C-1.07410156 6.88699219 -1.08570313 6.08648437 -1.09765625 5.26171875 C-1 3 -1 3 0 0 Z " fill="#DEE5ED" transform="translate(649,384)"/>
<path d="M0 0 C0.99 0.33 1.98 0.66 3 1 C3.33 1.99 3.66 2.98 4 4 C3.01 4.99 2.02 5.98 1 7 C0.01 6.67 -0.98 6.34 -2 6 C-1.34 4.02 -0.68 2.04 0 0 Z " fill="#323C46" transform="translate(411,329)"/>
<path d="M0 0 C1.07349791 4.29399165 0.79682816 5.19495213 -1 9 C-2.32 8.67 -3.64 8.34 -5 8 C-3.35 5.36 -1.7 2.72 0 0 Z " fill="#E2EBEE" transform="translate(432,308)"/>
<path d="M0 0 C0.66 0.33 1.32 0.66 2 1 C2.33 1.99 2.66 2.98 3 4 C2.67 4.66 2.34 5.32 2 6 C-0.475 5.01 -0.475 5.01 -3 4 C-2.01 2.68 -1.02 1.36 0 0 Z " fill="#3C444A" transform="translate(665,737)"/>
<path d="M0 0 C1.65 0 3.3 0 5 0 C5 0.99 5 1.98 5 3 C2.50935112 3.68707555 0.62113708 4 -2 4 C-1.34 2.68 -0.68 1.36 0 0 Z " fill="#323B46" transform="translate(704,692)"/>
<path d="M0 0 C1.98 0.66 3.96 1.32 6 2 C4.02 2.99 4.02 2.99 2 4 C2 4.66 2 5.32 2 6 C1.34 6 0.68 6 0 6 C-1.125 2.25 -1.125 2.25 0 0 Z " fill="#E5EEEE" transform="translate(441,647)"/>
<path d="M0 0 C2.64 0.99 5.28 1.98 8 3 C4.99580359 4.0013988 2.12290635 4.51421457 -1 5 C-1.33 4.01 -1.66 3.02 -2 2 C-1.34 2 -0.68 2 0 2 C0 1.34 0 0.68 0 0 Z " fill="#3A4147" transform="translate(402,584)"/>
<path d="M0 0 C0.33 0 0.66 0 1 0 C1.33 4.29 1.66 8.58 2 13 C-1 10 -1 10 -1.07421875 7.51953125 C-0.94660156 6.62621094 -0.81898438 5.73289062 -0.6875 4.8125 C-0.56761719 3.91144531 -0.44773437 3.01039063 -0.32421875 2.08203125 C-0.21722656 1.39496094 -0.11023438 0.70789063 0 0 Z " fill="#CED7DF" transform="translate(742,518)"/>
<path d="M0 0 C0.66 0 1.32 0 2 0 C2 0.99 2 1.98 2 3 C3.32 3.33 4.64 3.66 6 4 C5.67 4.99 5.34 5.98 5 7 C2.69 5.35 0.38 3.7 -2 2 C-1.34 1.34 -0.68 0.68 0 0 Z " fill="#3B474E" transform="translate(441,516)"/>
<path d="M0 0 C1.5625 1.1875 1.5625 1.1875 3 3 C2.6875 5.6875 2.6875 5.6875 2 8 C-0.36556709 5.63443291 -0.58244041 4.25696479 -1 1 C-0.67 0.67 -0.34 0.34 0 0 Z " fill="#E1E2EA" transform="translate(434,460)"/>
<path d="M0 0 C2.72727273 4.09090909 2.72727273 4.09090909 3 7 C1.5625 8.75 1.5625 8.75 0 10 C-0.74926071 6.33694766 -1.2380014 3.57644848 0 0 Z " fill="#E0E6E9" transform="translate(722,453)"/>
<path d="M0 0 C0.99 0 1.98 0 3 0 C3.66 0.66 4.32 1.32 5 2 C4.01 3.32 3.02 4.64 2 6 C1.01 5.67 0.02 5.34 -1 5 C-0.67 3.35 -0.34 1.7 0 0 Z " fill="#E0E4E9" transform="translate(458,450)"/>
<path d="M0 0 C0.639375 0.165 1.27875 0.33 1.9375 0.5 C4.04582216 1.24598544 4.04582216 1.24598544 6 0 C6 1.65 6 3.3 6 5 C4.68 4.67 3.36 4.34 2 4 C2 3.34 2 2.68 2 2 C1.01 1.67 0.02 1.34 -1 1 C-0.67 0.67 -0.34 0.34 0 0 Z " fill="#3C484D" transform="translate(552,426)"/>
<path d="M0 0 C0.99 0.99 1.98 1.98 3 3 C2.34 4.98 1.68 6.96 1 9 C0.34 9 -0.32 9 -1 9 C-0.67 6.03 -0.34 3.06 0 0 Z " fill="#E5EBF0" transform="translate(347,382)"/>
<path d="M0 0 C1.5625 1.8125 1.5625 1.8125 3 4 C2.67 4.99 2.34 5.98 2 7 C-0.475 6.01 -0.475 6.01 -3 5 C-3 3 -3 3 -1.5 1.375 C-1.005 0.92125 -0.51 0.4675 0 0 Z " fill="#383F4A" transform="translate(580,377)"/>
<path d="M0 0 C4.29 0 8.58 0 13 0 C11.515 1.485 11.515 1.485 10 3 C9.34 3 8.68 3 8 3 C8 2.34 8 1.68 8 1 C5.36 1 2.72 1 0 1 C0 0.67 0 0.34 0 0 Z " fill="#232B31" transform="translate(480,802)"/>
<path d="M0 0 C-1.625 1.5625 -1.625 1.5625 -4 3 C-7.25 2.6875 -7.25 2.6875 -10 2 C-6.19832777 -0.53444815 -4.31588991 -1.33941411 0 0 Z " fill="#3A4247" transform="translate(580,790)"/>
<path d="M0 0 C4.875 4.75 4.875 4.75 6 7 C5.34 7.66 4.68 8.32 4 9 C4 8.34 4 7.68 4 7 C3.01 6.67 2.02 6.34 1 6 C0.67 4.02 0.34 2.04 0 0 Z " fill="#3B4249" transform="translate(306,709)"/>
<path d="M0 0 C2.97 0 5.94 0 9 0 C8.34 1.32 7.68 2.64 7 4 C4.08482708 2.92598892 2.22189824 2.22189824 0 0 Z " fill="#282F37" transform="translate(352,681)"/>
<path d="M0 0 C0.86625 0.556875 0.86625 0.556875 1.75 1.125 C1.42 2.115 1.09 3.105 0.75 4.125 C-1.75357861 3.2904738 -3.91785852 2.33128008 -6.25 1.125 C-2.80384615 -1.09038462 -2.80384615 -1.09038462 0 0 Z " fill="#383F47" transform="translate(664.25,674.875)"/>
<path d="M0 0 C-0.33 0.99 -0.66 1.98 -1 3 C-3.4375 2.625 -3.4375 2.625 -6 2 C-6.33 1.34 -6.66 0.68 -7 0 C-4.3333581 -1.33332095 -2.83319697 -0.67102033 0 0 Z " fill="#313F47" transform="translate(614,643)"/>
<path d="M0 0 C7.57142857 1.85714286 7.57142857 1.85714286 10 5 C5.75354935 5 3.61475228 3.18249194 0 1 C0 0.67 0 0.34 0 0 Z " fill="#424C53" transform="translate(334,642)"/>
<path d="M0 0 C2 2 2 2 2 5 C1.34 5 0.68 5 0 5 C-0.33 6.65 -0.66 8.3 -1 10 C-1.66 10 -2.32 10 -3 10 C-2.01 6.7 -1.02 3.4 0 0 Z " fill="#DCE5E9" transform="translate(708,620)"/>
<path d="M0 0 C0.99 0.33 1.98 0.66 3 1 C3.33 2.65 3.66 4.3 4 6 C3.34 6 2.68 6 2 6 C1.67 6.66 1.34 7.32 1 8 C0.34 5.69 -0.32 3.38 -1 1 C-0.67 0.67 -0.34 0.34 0 0 Z " fill="#5E6874" transform="translate(388,458)"/>
<path d="M0 0 C2.475 0.495 2.475 0.495 5 1 C5.33 1.99 5.66 2.98 6 4 C5.34 4 4.68 4 4 4 C4 4.99 4 5.98 4 7 C2 6 2 6 0.875 2.9375 C0.58625 1.968125 0.2975 0.99875 0 0 Z " fill="#202B35" transform="translate(529,436)"/>
<path d="M0 0 C0.33 0 0.66 0 1 0 C1.33 2.64 1.66 5.28 2 8 C0.68 7.67 -0.64 7.34 -2 7 C-1.125 2.25 -1.125 2.25 0 0 Z " fill="#343C46" transform="translate(590,403)"/>
<path d="M0 0 C2.99332739 0.9977758 3.94766315 1.7522025 6 4 C5.67 4.99 5.34 5.98 5 7 C2.5 5.1875 2.5 5.1875 0 3 C0 2.01 0 1.02 0 0 Z " fill="#3D464E" transform="translate(680,389)"/>
<path d="M0 0 C1.5625 1.1875 1.5625 1.1875 3 3 C2.6875 5.6875 2.6875 5.6875 2 8 C1.34 8 0.68 8 0 8 C-0.66 6.02 -1.32 4.04 -2 2 C-1.34 2 -0.68 2 0 2 C0 1.34 0 0.68 0 0 Z " fill="#39424B" transform="translate(574,367)"/>
<path d="M0 0 C1 3 1 3 1 6 C-2 8.1875 -2 8.1875 -5 10 C-3.66511872 6.40608886 -2.03977277 3.24509304 0 0 Z " fill="#E0ECF1" transform="translate(495,311)"/>
<path d="M0 0 C2 2 2 2 2 5 C0.02 5.99 0.02 5.99 -2 7 C-2 3 -2 3 0 0 Z " fill="#323B42" transform="translate(465,311)"/>
<path d="M0 0 C0.99 0 1.98 0 3 0 C3 1.98 3 3.96 3 6 C1.68 5.67 0.36 5.34 -1 5 C-0.67 3.35 -0.34 1.7 0 0 Z " fill="#F8F8FA" transform="translate(524,290)"/>
<path d="M0 0 C3.3 0.33 6.6 0.66 10 1 C9.01 1.495 9.01 1.495 8 2 C8 2.66 8 3.32 8 4 C5.0280615 2.87548273 2.66559313 1.77706209 0 0 Z " fill="#D8E5E3" transform="translate(453,769)"/>
<path d="M0 0 C0.66 0 1.32 0 2 0 C2.33 1.65 2.66 3.3 3 5 C1.02 5.99 1.02 5.99 -1 7 C-1 4.37886292 -0.68707555 2.49064888 0 0 Z " fill="#EDF1F3" transform="translate(650,744)"/>
<path d="M0 0 C3.36720387 1.39332574 4.9859524 2.9789286 7 6 C4.0625 5.25 4.0625 5.25 1 4 C0.125 1.875 0.125 1.875 0 0 Z " fill="#4A5157" transform="translate(322,728)"/>
<path d="M0 0 C0.33 1.32 0.66 2.64 1 4 C-1.375 5.5625 -1.375 5.5625 -4 7 C-4.66 6.67 -5.32 6.34 -6 6 C-4.02 4.02 -2.04 2.04 0 0 Z " fill="#3C4248" transform="translate(687,715)"/>
<path d="M0 0 C0.66 1.32 1.32 2.64 2 4 C-0.375 5.5625 -0.375 5.5625 -3 7 C-3.66 6.67 -4.32 6.34 -5 6 C-3.35 4.02 -1.7 2.04 0 0 Z " fill="#42494E" transform="translate(693,707)"/>
<path d="M0 0 C0 0.66 0 1.32 0 2 C-1.98 2.99 -3.96 3.98 -6 5 C-6.33 4.34 -6.66 3.68 -7 3 C-4.49955934 -0.00052879 -4.2621484 0 0 0 Z " fill="#323F47" transform="translate(548,649)"/>
<path d="M0 0 C0 0.66 0 1.32 0 2 C-2.5 3.625 -2.5 3.625 -5 5 C-5.99 4.01 -6.98 3.02 -8 2 C-2.25 0 -2.25 0 0 0 Z " fill="#313E46" transform="translate(561,642)"/>
<path d="M0 0 C2 1.3125 2 1.3125 4 3 C4 3.99 4 4.98 4 6 C1.525 5.01 1.525 5.01 -1 4 C-0.67 2.68 -0.34 1.36 0 0 Z " fill="#EBECEF" transform="translate(398,577)"/>
<path d="M0 0 C1.32 0.33 2.64 0.66 4 1 C3.34 2.65 2.68 4.3 2 6 C0.68 5.01 -0.64 4.02 -2 3 C-1.34 2.01 -0.68 1.02 0 0 Z " fill="#343D46" transform="translate(627,552)"/>
<path d="M0 0 C1.65 0.99 3.3 1.98 5 3 C4.01 4.485 4.01 4.485 3 6 C2.01 6 1.02 6 0 6 C0 4.02 0 2.04 0 0 Z " fill="#E6EFF0" transform="translate(433,513)"/>
<path d="M0 0 C1 3 1 3 -0.4375 6.1875 C-1.2109375 7.5796875 -1.2109375 7.5796875 -2 9 C-2.66 8.34 -3.32 7.68 -4 7 C-3.625 4.875 -3.625 4.875 -3 3 C-2.67 3.33 -2.34 3.66 -2 4 C-1.34 2.68 -0.68 1.36 0 0 Z " fill="#252E38" transform="translate(734,465)"/>
<path d="M0 0 C0.99 0.33 1.98 0.66 3 1 C2.39816251 3.02045442 1.72693904 5.02111039 1 7 C0.01 7.495 0.01 7.495 -1 8 C-1.125 2.25 -1.125 2.25 0 0 Z " fill="#232D34" transform="translate(274,450)"/>
<path d="M0 0 C0.33 0 0.66 0 1 0 C1.33 2.64 1.66 5.28 2 8 C1.34 8 0.68 8 0 8 C0 7.34 0 6.68 0 6 C-0.66 6 -1.32 6 -2 6 C-1.34 4.02 -0.68 2.04 0 0 Z " fill="#323E47" transform="translate(590,432)"/>
<path d="M0 0 C1.32 0.66 2.64 1.32 4 2 C3.34 3.32 2.68 4.64 2 6 C0.68 5.67 -0.64 5.34 -2 5 C-2 4.34 -2 3.68 -2 3 C-1.34 3 -0.68 3 0 3 C0 2.01 0 1.02 0 0 Z " fill="#333B41" transform="translate(483,407)"/>
<path d="M0 0 C0.99 0.33 1.98 0.66 3 1 C2 4 2 4 -0.0625 5.1875 C-0.701875 5.455625 -1.34125 5.72375 -2 6 C-2 3 -2 3 0 0 Z " fill="#F5F8FD" transform="translate(404,351)"/>
<path d="M0 0 C0.66 1.32 1.32 2.64 2 4 C0.824375 4.2165625 0.824375 4.2165625 -0.375 4.4375 C-2.96421018 4.87798925 -2.96421018 4.87798925 -5 6 C-3.63016497 2.83884224 -3.0109362 2.0072908 0 0 Z " fill="#F2FAFC" transform="translate(429,315)"/>
<path d="M0 0 C0.99 0.99 1.98 1.98 3 3 C2.01 4.32 1.02 5.64 0 7 C-0.66 5.68 -1.32 4.36 -2 3 C-1.34 2.01 -0.68 1.02 0 0 Z " fill="#2F3A45" transform="translate(428,307)"/>
<path d="M0 0 C0.66 0.66 1.32 1.32 2 2 C1.625 4.125 1.625 4.125 1 6 C-0.32 5.67 -1.64 5.34 -3 5 C-2.625 3.0625 -2.625 3.0625 -2 1 C-1.34 0.67 -0.68 0.34 0 0 Z " fill="#F3F9FC" transform="translate(446,292)"/>
<path d="M0 0 C0.66 0 1.32 0 2 0 C2.66 1.32 3.32 2.64 4 4 C2.02 4.99 2.02 4.99 0 6 C-0.66 5.01 -1.32 4.02 -2 3 C-1.34 2.01 -0.68 1.02 0 0 Z " fill="#3F464D" transform="translate(499,263)"/>
<path d="M0 0 C-1.47692308 4.67692308 -1.47692308 4.67692308 -4.125 6.3125 C-5.053125 6.6528125 -5.053125 6.6528125 -6 7 C-5.6875 4.625 -5.6875 4.625 -5 2 C-2 0 -2 0 0 0 Z " fill="#F5FBFE" transform="translate(471,260)"/>
<path d="M0 0 C1.9375 0.8125 1.9375 0.8125 4 2 C4.33 2.99 4.66 3.98 5 5 C3.68 5.33 2.36 5.66 1 6 C0.67 4.02 0.34 2.04 0 0 Z " fill="#E0E6E9" transform="translate(517,241)"/>
<path d="M0 0 C1.32 0 2.64 0 4 0 C4.33 1.98 4.66 3.96 5 6 C4.34 6 3.68 6 3 6 C2.01 4.02 1.02 2.04 0 0 Z " fill="#323C45" transform="translate(507,224)"/>
<path d="M0 0 C0.66 0 1.32 0 2 0 C2.33 1.32 2.66 2.64 3 4 C0.525 5.485 0.525 5.485 -2 7 C-1.34 4.69 -0.68 2.38 0 0 Z " fill="#EDEFF1" transform="translate(637,754)"/>
<path d="M0 0 C-1.36983503 3.16115776 -1.9890638 3.9927092 -5 6 C-5.33 4.68 -5.66 3.36 -6 2 C-2.25 0 -2.25 0 0 0 Z " fill="#EBECED" transform="translate(672,730)"/>
<path d="M0 0 C1.32 0.66 2.64 1.32 4 2 C1 4 1 4 -1.6875 3.625 C-2.450625 3.41875 -3.21375 3.2125 -4 3 C-2.68 2.01 -1.36 1.02 0 0 Z " fill="#E5EBED" transform="translate(538,714)"/>
<path d="M0 0 C0.66 0 1.32 0 2 0 C2.33 2.31 2.66 4.62 3 7 C1.0625 6.1875 1.0625 6.1875 -1 5 C-1.33 4.01 -1.66 3.02 -2 2 C-1.34 2 -0.68 2 0 2 C0 1.34 0 0.68 0 0 Z " fill="#39444D" transform="translate(345,705)"/>
<path d="M0 0 C3.875 1.75 3.875 1.75 5 4 C4.34 4 3.68 4 3 4 C2.67 4.99 2.34 5.98 2 7 C0.5393715 4.35261084 0 3.10551666 0 0 Z " fill="#DDE2E6" transform="translate(325,689)"/>
<path d="M0 0 C1.5625 1.8125 1.5625 1.8125 3 4 C2.67 4.99 2.34 5.98 2 7 C1.67 6.34 1.34 5.68 1 5 C0.01 5.33 -0.98 5.66 -2 6 C-1.34 4.02 -0.68 2.04 0 0 Z " fill="#DBDFE6" transform="translate(300,646)"/>
<path d="M0 0 C2.76223278 2.76223278 2.57856291 5.20706617 3 9 C2.01 8.67 1.02 8.34 0 8 C0 5.36 0 2.72 0 0 Z " fill="#D2DADE" transform="translate(292,626)"/>
<path d="M0 0 C0 0.99 0 1.98 0 3 C-0.66 3 -1.32 3 -2 3 C-2 3.99 -2 4.98 -2 6 C-3.65 5.67 -5.3 5.34 -7 5 C-4.702779 3.25728062 -2.40133271 1.60088848 0 0 Z " fill="#353D43" transform="translate(601,581)"/>
<path d="M0 0 C2.03144641 0.93446535 4.03533587 1.93224776 6 3 C6 3.33 6 3.66 6 4 C3.6568787 3.74438677 1.32156597 3.40729228 -1 3 C-1.33 2.34 -1.66 1.68 -2 1 C-1.34 0.67 -0.68 0.34 0 0 Z " fill="#E6EAEE" transform="translate(412,552)"/>
<path d="M0 0 C2.475 0.99 2.475 0.99 5 2 C3 5 3 5 1 6 C1 5.34 1 4.68 1 4 C0.34 4 -0.32 4 -1 4 C-0.67 2.68 -0.34 1.36 0 0 Z " fill="#3D4750" transform="translate(498,469)"/>
<path d="M0 0 C0.99 0.66 1.98 1.32 3 2 C2.67 2.66 2.34 3.32 2 4 C1.01 4 0.02 4 -1 4 C-1 4.66 -1 5.32 -1 6 C-1.66 6 -2.32 6 -3 6 C-2.67 4.68 -2.34 3.36 -2 2 C-1.34 2 -0.68 2 0 2 C0 1.34 0 0.68 0 0 Z " fill="#77818B" transform="translate(389,452)"/>
<path d="M0 0 C0.33 0.66 0.66 1.32 1 2 C1.99 2 2.98 2 4 2 C4.33 3.32 4.66 4.64 5 6 C3.35 5.67 1.7 5.34 0 5 C0 3.35 0 1.7 0 0 Z " fill="#636D76" transform="translate(588,450)"/>
<path d="M0 0 C0.66 0 1.32 0 2 0 C2.33 1.65 2.66 3.3 3 5 C1.35 5 -0.3 5 -2 5 C-1.34 3.35 -0.68 1.7 0 0 Z " fill="#ECF0F4" transform="translate(281,443)"/>
<path d="M0 0 C0.66 0 1.32 0 2 0 C2.33 1.65 2.66 3.3 3 5 C2.01 5.66 1.02 6.32 0 7 C-1.125 2.25 -1.125 2.25 0 0 Z " fill="#F3F6F7" transform="translate(433,347)"/>
<path d="M0 0 C1.32 1.32 2.64 2.64 4 4 C3.67 4.99 3.34 5.98 3 7 C2.01 6.34 1.02 5.68 0 5 C-0.1875 2.375 -0.1875 2.375 0 0 Z " fill="#DFE4E6" transform="translate(557,295)"/>
<path d="M0 0 C2 1.8125 2 1.8125 4 4 C4 4.99 4 5.98 4 7 C3.01 6.67 2.02 6.34 1 6 C0.67 4.02 0.34 2.04 0 0 Z " fill="#333B44" transform="translate(521,241)"/>
</svg>
