<svg xmlns="http://www.w3.org/2000/svg" width="20" viewBox="0 0 500 500" height="auto" xmlns:v="https://vecta.io/nano"><path fill="none" d="M335 501H1V1h500v500H335m-46.679-281.196c-.08.403-.159.806-.838 1.635-2.479 5.655-.69 10.749 5.137 12.551 5.342 1.652 6.191-3.345 7.945-6.626.361-.675.258-1.598.758-3.061.212-.742.425-1.485.882-2.686.36-2.903.72-5.805 1.374-9.531.098-.574.196-1.149.526-1.579l.137.042s-.375-.128-.494-.875c-.1-.232-.2-.464-.08-1.483-.072-1.075-.144-2.151-.003-3.869-.138-1.346-.277-2.693-.135-4.344-.135-.361-.271-.721-.515-1.082 0 0-.027.106.098-.484-.18-.774-.361-1.548-.546-3.171l-6.302-16.964c-.744-1.121-1.487-2.241-2.302-3.951-.151-.129-.301-.257-.452-.732-.112-.233-.297-.355-.752-1.127l-2.629-3.695s-.004.013-.305-.786c-.554-.643-1.108-1.286-1.69-2.286-.162-.249-.385-.399-.908-1.201l-15.004-20.73s-.132-.056-.35-.774l-13.282-18.605c-.807-.972-1.615-1.944-2.44-3.424-.34-.339-.68-.678-1.131-1.638-.674-.785-1.349-1.57-2.048-2.833-.15-.326-.404-.493-.958-1.142-.612-.643-1.223-1.285-1.942-2.56-1.151-1.249-2.302-2.498-3.456-4.003l-.221-.125s-.125.22-.712-.292c-1.675 1.087-3.842 1.812-4.949 3.316l-37.077 51.087c-7.967 11.244-15.364 22.865-16.653 37.997l-.106 10.964c.293 1.833.587 3.666.868 6.332 1.163 3.514 2.044 7.155 3.571 10.503 1.409 3.09 3.985 4.88 7.627 3.326 3.606-1.539 5.646-4.084 4.303-8.193-.963-2.945-2.186-5.805-3.329-9.452-.021-.749-.043-1.499.385-2.761-.183-1.501-.366-3.003-.527-5.246.301-2.755.601-5.511 1.195-8.971 4.176-15.334 14.979-26.694 23.63-39.337l18.793-26.96c.887-.094 1.773-.189 2.905.374l18.657 25.865c.644.671 1.289 1.342 2.107 2.667 8.098 11.139 16.951 21.819 21.33 35.619.057.315.23.54.478 1.308.145.394.289.788.386 1.811.274.792.549 1.583.724 3.213.231 1.373.463 2.747.422 4.85.091.765.183 1.53-.073 3.037-.069.541-.138 1.083-.665 1.47l-.366.314c.118.109.221.272.359.311s.312-.044.414.067c0 0 .146.045-.043.803-.34 1.776-.68 3.552-1.465 5.581-.027.316-.053.632-.265 1.537m-17.277-11.583l-.765-3.968c-1.763.29-3.063.504-5.114.227.925-2.299 2.02-4.55 2.695-6.92.291-1.02.062-2.535-.541-3.397-1.629-2.329-3.505-4.502-5.434-6.598-2.083-2.264-3.969-5.101-6.581-6.417-10.842-5.46-23.474-.724-28.981 10.953l13.223 9.123 6.097-8.822 5.476 8.208-3.664 4.065c5.552.855 10.062 1.549 14.782 2.997l-3.655 2.698 1.643 4.233c.595.81 1.19 1.62 1.574 2.958l3.952 7.921c-2.687 0-4.629 0-6.571 0-2.157-.001-4.321-.109-6.47.022-3.145.192-7.812 5.761-7.599 9.197.251 4.04 3.004 5.744 6.64 6.11 2.959.299 5.956.212 8.933.345 10.908.487 18.743-10.066 19.814-18.784.628-5.107-3.36-11.062-7.919-11.646-.514-.573-1.029-1.147-1.535-2.505m-131.958 76.764c-3.509-33.776 7.1-62.598 30.541-86.893 3.49-3.618 3.906-8.108.839-11.08-2.863-2.774-7.496-2.58-10.625.936-9.493 10.666-18.315 21.656-24.199 35.016-15.559 35.328-15.109 70.353 2.283 104.486 16.048 31.495 41.719 51.831 76.23 61.03 50.044 13.34 104.536-7.128 132.631-52.209 11.039-17.713 17.696-36.772 18.432-57.772 1.243-35.439-11.438-65.354-35.791-90.668-2.925-3.041-6.165-3.862-9.695-.917-3.122 2.606-3.244 6.492-.323 10.152.413.518.977.919 1.368 1.45 6.099 8.284 13.497 15.921 18.033 24.989 17.645 35.275 17.208 70.505-3.393 104.665-13.032 21.609-31.804 36.847-55.706 44.547-37.925 12.217-73.045 6.068-103.907-19.685-20.922-17.458-33.206-39.956-36.719-68.047m121.628 6.265c3.045-4.535 6.399-8.897 9.058-13.648 3.442-6.151 7.8-11.247 14.299-14.038 1.392-.598 3.535.554 5.332.901-.47 1.737-.66 3.628-1.505 5.157-.579 1.049-2.121 1.533-3.142 2.378-5.352 4.43-8.899 10.016-10.982 16.665 24.296 6.204 41.72-24.392 40.82-45.546-9.595 1.355-19.412 1.577-28.471 4.31-11.93 3.598-21.124 11.331-23.835 24.461-1.383 6.699-4.011 9.381-11.279 9.899l.001-21.964c.004-5.701-1.936-8.271-6.331-8.079-5.091.222-5.52 3.931-5.533 7.808l-.008 22.428c-7.251-.7-10.47-3.416-11.64-9.708-1.509-8.116-6.039-14.35-12.449-19.151-11.953-8.952-25.849-9.326-40.33-8.746.514 3.124.882 5.911 1.439 8.659 2.889 14.26 9.016 26.409 22.428 33.627 5.571 2.998 11.459 3.893 17.923 2.22-.605-1.649-.773-3.114-1.558-4.074-3.838-4.698-7.991-9.146-11.71-13.933-1.44-1.854-2.029-4.37-3.006-6.584 2.299-.051 5.381-1.076 6.752.026 4.427 3.56 9.281 7.294 12.032 12.077 4.91 8.536 9.137 17.161 20.126 19.299l.057 19.273c.121 3.687 1.713 6.493 6.095 6.276 3.864-.191 5.687-2.324 5.691-6.124.003-2.332.261-4.698-.039-6.99-1.027-7.837.249-14.249 9.763-16.878m-28.665 49.235c11.587 3.635 22.566 2.555 33.068-3.807a102.28 102.28 0 0 1 13.75-6.955c8.264-3.429 15.939.098 23.728 2.506 17.904 5.535 29.281-5.244 32.022-16.688.458-1.915-.896-4.264-1.413-6.412-1.709.895-3.827 1.412-5.059 2.747-6.761 7.326-15.08 9.694-24.025 5.966-14.924-6.22-28.401-4.31-41.702 4.303-10.367 6.713-21.395 7.778-32.644 1.684-5.109-2.768-10.116-5.888-15.521-7.909-9.138-3.417-18.322-2.143-27.315 1.304-10.047 3.851-18.933 2.515-26.063-6.198-.874-1.068-2.108-1.841-4.218-3.64-.607 3.119-1.487 5.143-1.291 7.056.921 8.973 8.253 16.627 17.101 18.586 7.043 1.56 13.56-.284 19.959-2.75 9.15-3.526 17.601-1.821 25.821 2.818 4.318 2.436 8.715 4.731 13.803 7.388m-4.848 25.686c9.559 3.904 19.408 5.079 29.268 1.758 5.931-1.998 11.573-4.92 17.216-7.689 6.893-3.382 13.883-5.522 21.655-3.654 1.145.275 2.913.18 3.665-.522 2.978-2.779 5.667-5.869 8.989-9.401-2.277-1.122-3.664-1.948-5.15-2.515-11.619-4.438-22.888-3.163-33.802 2.342-3.997 2.016-7.669 4.756-11.787 6.44-12.581 5.146-24.026 1.7-35.134-4.941-4.07-2.433-8.635-4.385-13.231-5.519-9.303-2.296-18.186-.547-27.693 4.584 3.508 3.214 6.202 5.938 9.19 8.288 1.117.878 3.065 1.498 4.386 1.186 7.297-1.723 13.836.223 20.199 3.524l12.229 6.12M212.44 226.894c5.747 12.24 13.352 15.939 28.08 13.586v-15.282h-16.111c2.659-3.528 3.998-7.017 6.454-8.215 5.484-2.675 3.614-6.99 2.939-10.577-.741-3.938-3.648-6.779-8.194-6.362-3.047.279-6.045 1.098-9.065 1.676l1.065 1.132c-.732 2.195-1.06 4.649-2.272 6.536-3.358 5.227-5.889 10.45-2.895 17.506m38.173-57.794c4.846-8.58-2.875-13.308-5.532-20.931-2.505 4.839-4.481 8.268-6.084 11.863-1.639 3.675-1.079 7.356 2.021 9.946 2.862 2.392 6.134 1.868 9.595-.878z"/><path fill="#f1f5f7" d="M139.158 285.437c3.441 27.639 15.724 50.137 36.647 67.595 30.862 25.752 65.982 31.902 103.907 19.685 23.902-7.7 42.675-22.938 55.706-44.547 20.601-34.16 21.038-69.39 3.393-104.665-4.536-9.068-11.934-16.706-18.033-24.989-.391-.531-.955-.932-1.368-1.45-2.921-3.66-2.799-7.546.323-10.152 3.529-2.945 6.769-2.124 9.695.917 24.352 25.314 37.033 55.229 35.791 90.668-.736 21-7.393 40.059-18.432 57.772-28.096 45.081-82.587 65.549-132.631 52.209-34.511-9.199-60.182-29.535-76.23-61.03-17.393-34.133-17.842-69.158-2.283-104.486 5.884-13.361 14.707-24.35 24.199-35.016 3.129-3.515 7.761-3.71 10.625-.936 3.068 2.972 2.652 7.462-.839 11.08-23.441 24.295-34.05 53.117-30.469 87.345m157.136 88.556c-5.435-1.339-7.535.324-6.434 6.05 2.448-1.959 4.615-3.693 6.434-6.05m-117.82-12.325l-3.175.432.284 1.302c1.003-.351 2.006-.701 2.892-1.734m8.708 6.926c.015-.539.058-1.081.01-1.614-.006-.062-.517-.079-.793-.116.081.562.161 1.123.784 1.73z"/><path fill="#f0f3f6" d="M260.445 291.488c-9.245 2.391-10.521 8.803-9.494 16.64.3 2.292.042 4.658.039 6.99-.005 3.8-1.828 5.933-5.691 6.124-4.382.217-5.974-2.588-6.095-6.276-.207-6.3-.057-12.611-.057-19.273-10.989-2.138-15.216-10.763-20.126-19.299-2.751-4.782-7.605-8.517-12.032-12.077-1.371-1.103-4.453-.077-6.752-.026.977 2.214 1.565 4.73 3.006 6.584 3.719 4.787 7.872 9.234 11.71 13.933.785.961.953 2.426 1.558 4.074-6.464 1.673-12.351.779-17.923-2.22-13.412-7.218-19.54-19.367-22.428-33.627-.557-2.748-.925-5.535-1.439-8.659 14.481-.579 28.377-.206 40.33 8.746 6.41 4.801 10.94 11.035 12.449 19.151 1.17 6.292 4.389 9.008 11.64 9.708l.008-22.428c.013-3.877.442-7.586 5.533-7.808 4.395-.192 6.335 2.378 6.331 8.079l-.001 21.964c7.268-.518 9.895-3.2 11.279-9.899 2.712-13.13 11.906-20.863 23.835-24.461 9.059-2.733 18.875-2.954 28.471-4.31.901 21.154-16.524 51.749-40.82 45.546 2.083-6.649 5.63-12.235 10.982-16.665 1.021-.845 2.563-1.329 3.142-2.378.845-1.53 1.036-3.421 1.505-5.157-1.797-.346-3.94-1.498-5.332-.901-6.498 2.792-10.857 7.887-14.299 14.038-2.658 4.751-6.013 9.113-9.326 13.886z"/><path fill="#f0f3f5" d="M231.685 340.336l-13.44-7.239c-8.22-4.639-16.671-6.344-25.821-2.818-6.399 2.466-12.916 4.309-19.959 2.75-8.848-1.96-16.18-9.613-17.101-18.586-.196-1.913.683-3.936 1.291-7.056 2.11 1.799 3.344 2.572 4.218 3.64 7.13 8.713 16.016 10.049 26.063 6.198 8.993-3.447 18.176-4.722 27.315-1.304 5.405 2.021 10.412 5.141 15.521 7.909 11.249 6.095 22.277 5.029 32.644-1.684 13.301-8.613 26.778-10.523 41.702-4.303 8.945 3.728 17.265 1.36 24.025-5.966 1.232-1.335 3.35-1.853 5.059-2.747.517 2.148 1.872 4.497 1.413 6.412-2.741 11.444-14.117 22.224-32.022 16.688-7.788-2.408-15.463-5.934-23.728-2.506a102.28 102.28 0 0 0-13.75 6.955c-10.502 6.362-21.481 7.442-33.431 3.658z"/><path fill="#f4f7fa" d="M288.163 166.054l1.811 2.296c.15.366.051.281.051.281l2.887 4.359c.255.716.403.857.598.947.151.129.301.257.469 1.03-.285 1.692-.587 2.739-.935 3.948h3.466c2.018 5.441 4.037 10.882 5.58 16.722-4.572 1.05-8.668 1.702-12.765 2.353-.145-.394-.289-.788-.428-1.705-.059-.805-.202-1.037-.424-1.221-4.439-13.364-13.292-24.043-21.453-35.903-.372-1.669-.68-2.616-.989-3.564l-1.311 1.109-18.595-25.962c-1.175-.136-2.157.333-3.139.803l-18.365 26.389c-8.651 12.643-19.454 24.003-24.163 39.756-4.771 1.043-9.009 1.668-13.247 2.292 1.083-14.344 8.48-25.965 16.447-37.209l37.077-51.087c1.107-1.505 3.274-2.229 5.298-3.029.349.288.586.385.586.385 1.151 1.249 2.302 2.498 3.493 4.45.725 1.302 1.411 1.901 2.098 2.501.359.007.613.173.779 1.101.725 1.352 1.434 2.101 2.143 2.851.34.339.68.678.989 1.661.854 1.562 1.738 2.48 2.623 3.398l13.242 18.327c.113.341.082.345.082.345 5.053 6.939 10.107 13.878 14.689 21.296a7.82 7.82 0 0 0-.914 2.364l2.32-1.285m-11.901-12.16l-.525.212.525-.212z"/><path fill="#f0f4f6" d="M226.829 366.051l-11.859-5.999c-6.363-3.301-12.901-5.247-20.199-3.524-1.321.312-3.269-.308-4.386-1.186-2.988-2.35-5.682-5.074-9.19-8.288 9.507-5.13 18.389-6.88 27.693-4.584 4.595 1.134 9.161 3.086 13.231 5.519 11.108 6.641 22.553 10.087 35.134 4.941 4.117-1.684 7.789-4.423 11.787-6.44 10.914-5.505 22.183-6.78 33.802-2.342 1.486.567 2.872 1.393 5.15 2.515-3.321 3.532-6.01 6.622-8.989 9.401-.753.702-2.52.797-3.665.522-7.772-1.868-14.762.271-21.655 3.654-5.643 2.769-11.285 5.691-17.216 7.689-9.86 3.322-19.709 2.146-29.638-1.879z"/><path fill="#e4e7eb" d="M212.302 226.52c-2.856-6.682-.324-11.905 3.033-17.133 1.212-1.887 1.541-4.341 2.272-6.536l-1.065-1.132c3.02-.577 6.018-1.396 9.065-1.676 4.546-.417 7.454 2.424 8.194 6.362.675 3.587 2.545 7.902-2.939 10.577-2.456 1.198-3.795 4.687-6.454 8.215h16.111v15.282c-14.728 2.352-22.333-1.346-28.218-13.96z"/><path fill="#e2e6eb" d="M262.025 206.917l-14.571-2.243 3.664-4.065-5.476-8.208-6.097 8.822-13.223-9.123c5.507-11.677 18.139-16.412 28.981-10.953 2.612 1.315 4.498 4.153 6.581 6.417 1.929 2.096 3.805 4.27 5.434 6.598.603.863.831 2.377.541 3.397-.675 2.37-1.77 4.621-2.285 7.18.409.26.427.189.172-.148-1.446.574-2.637 1.485-3.783 2.405.044.01.062-.079.062-.079z"/><path fill="#e4e8ec" d="M273.072 211.054c4.065.255 8.053 6.21 7.425 11.317-1.071 8.718-8.906 19.271-19.814 18.784-2.978-.133-5.974-.046-8.933-.345-3.636-.367-6.388-2.071-6.64-6.11-.214-3.436 4.453-9.005 7.599-9.197 2.149-.131 4.313-.023 6.47-.022h6.571c-1.538-3.083-2.745-5.502-3.493-8.249l10.816-6.178z"/><path fill="#eaf0f3" d="M250.359 169.362c-3.207 2.483-6.479 3.007-9.341.615-3.099-2.59-3.66-6.272-2.021-9.946 1.603-3.595 3.58-7.024 6.084-11.863 2.657 7.623 10.377 12.351 5.277 21.194z"/><path fill="#7e8991" d="M199.975 215l3.294 8.703c1.343 4.11-.697 6.654-4.303 8.193-3.642 1.554-6.218-.236-7.627-3.326-1.527-3.348-2.408-6.99-3.17-11.052 4.203-1.206 8.004-1.863 11.806-2.52z"/><path fill="#e5eaee" d="M187.109 200.378c4.341-1.018 8.579-1.643 13.203-2.334.086 2.689-.215 5.444-.735 8.504-.22.304-.641.423-1.016.479l-11.536 3.905.085-10.553z"/><path fill="#48555e" d="M300.934 224.956c-.111.809-.009 1.732-.37 2.407-1.753 3.282-2.602 8.278-7.945 6.626-5.827-1.802-7.616-6.895-4.53-12.587 4.686 1.161 8.765 2.357 12.844 3.553z"/><path fill="#a4acb2" d="M289.031 218.014c.34-1.776.68-3.552 1.52-5.697 4.578-.049 8.655.271 12.733.591-.36 2.903-.72 5.805-1.266 8.655-1.441-.252-2.696-.45-4.044-.995-2.387-.759-4.681-1.173-7.25-1.591-.641-.001-1.007.002-1.432-.244-.127-.406-.194-.563-.262-.72z"/><path fill="#ccd3d8" d="M186.962 211.334c3.783-1.685 7.504-2.968 11.658-3.928.707 1.748.981 3.173 1.254 4.598l.082 2.622c-3.784 1.031-7.585 1.689-11.782 2.477-.688-1.701-.982-3.534-1.213-5.769z"/><path fill="#e8edf1" d="M290.696 205.953c-.231-1.373-.463-2.747-.282-4.583 4.466-1.098 8.519-1.734 12.573-2.37 0 0 .027-.106.008.251.072.581.163.806.254 1.031.138 1.346.277 2.693-.079 4.364-4.487.653-8.48.98-12.474 1.307z"/><path fill="#d0d8dd" d="M265.95 204.986l4.329-.732c.253 1.311.509 2.639.436 4.49-3.789 2.096-7.25 3.67-10.711 5.244l-1.424-3.617c1.309-.966 2.482-1.832 3.55-3.075-.106-.377-.123-.288.145-.047 1.421-.612 2.573-1.466 3.726-2.319 0 0-.017.071-.051.057z"/><path fill="#f0f4f6" d="M303.05 198.706c-4.116.931-8.169 1.566-12.585 2.246-.637-.748-.911-1.54-1.162-2.645 4.121-.966 8.217-1.617 12.791-2.243.658.8.838 1.574.956 2.643z"/><path fill="#ccd3d8" d="M303.432 212.497c-4.225.091-8.302-.228-12.786-.559-.407-.01-.553-.055-.458-.226s-.043-.368-.043-.368c.069-.541.138-1.083.756-1.996 4.549-.371 8.548-.371 12.548-.371.1.232.2.464.387 1.06.088.365.037.324.037.324-.098.574-.196 1.149-.441 2.135z"/><path fill="#7e8991" d="M289.352 218.983c.366-.003.732-.005 1.558.257l7.157 1.674c1.255.199 2.51.398 3.828.879-.149 1.025-.361 1.767-.767 2.836-4.273-.87-8.352-2.066-12.739-3.439-.228-.58-.148-.983.237-1.733.305-.347.726-.474.726-.474z"/><path fill="#dbe2e5" d="M303.558 208.584c-4.109.394-8.109.394-12.484.394-.467-.765-.558-1.53-.514-2.659 4.129-.692 8.122-1.02 12.504-1.351.46 1.072.532 2.147.494 3.616z"/><path fill="#363c42" d="M260.114 214.295c3.351-1.882 6.812-3.456 10.598-5.159.839.444 1.353 1.017 2.114 1.755-3.206 2.114-6.658 4.064-10.463 6.078-.948-.745-1.544-1.556-2.248-2.673z"/><path fill="#7e8991" d="M200.099 211.747c-.498-1.168-.772-2.593-1.104-4.396-.059-.379.363-.498.571-.431a17.48 17.48 0 0 1 .533 4.827z"/><path d="M296.388 178.596c-1.018.321-2.16.321-3.343.321l.97-3.654c.762.771 1.506 1.891 2.373 3.333zm-31.539-21.635c.309-.624.746-.994 1.183-1.364l.902 3.237c-.669-.277-1.313-.948-2.085-1.874zm-6.181-32.263c-.808-.609-1.693-1.527-2.538-2.835.847.582 1.654 1.554 2.538 2.835zm-15.467 6.564c.768-.184 1.75-.654 2.803-.846-.816.372-1.702.466-2.803.846zm44.948 34.614c-.759.607-1.533 1.035-2.306 1.463.148-.628.295-1.257 1.032-1.988.874-.053 1.097.097 1.274.524zm-33.073-46.238c-.654-.44-1.363-1.189-2.075-2.302.671.422 1.345 1.207 2.075 2.302zm-2.964-3.964c-.588-.278-1.275-.877-1.947-1.863.626.256 1.237.899 1.947 1.863zm-5.493-6.757c.001.128-.236.03-.292-.001s.07-.252.07-.252.221.125.222.253z" fill="#f0f4f6"/><path fill="#a4acb2" d="M303.389 200.129c-.231-.072-.322-.297-.339-.878.209.005.344.365.339.878z"/><path fill="#f0f4f6" d="M272.145 143.723c-.078-.044-.047-.048-.051-.03s.128.074.051.03z"/><path fill="#48555e" d="M289.293 218.734c.059.249-.361.377-.574.429-.186-.263-.16-.58.09-1.022.29.03.358.187.485.593z"/><path d="M289.915 211.267c.229.077.366.274.301.374-.224.13-.398.214-.536.175s-.241-.202-.359-.311c.122-.105.244-.21.595-.237zm14.074-.833c-.116-.072-.065-.031-.094-.022s.347.136.347.136-.137-.042-.253-.114z" fill="#a4acb2"/><path d="M290.078 168.701c-.052-.069.047.016.047.049s.005.02-.047-.049zm3.433 5.064c-.195.082-.343-.058-.5-.393.203-.135.388-.014.5.393zm-5.067 21.518c.252-.034.395.198.475.687-.275.072-.448-.154-.475-.687z" fill="#f0f4f6"/><path d="M296.467 374.304c-1.993 2.045-4.159 3.779-6.607 5.738-1.101-5.726.999-7.388 6.607-5.738zm-117.935-12.296c-.944.692-1.947 1.043-2.95 1.393l-.284-1.302c1.058-.144 2.117-.288 3.234-.091zm8.379 6.562c-.351-.584-.432-1.146-.513-1.707.277.038.788.054.793.116.049.533.006 1.075-.28 1.591z" fill="#f1f4f6"/><path d="M276.131 153.947c-.044.018.044-.018 0 0zm-.262.106c.044-.018-.044.018 0 0z" fill="#f0f4f6"/><path fill="#000001" d="M265.746 204.591c-.898 1.191-2.05 2.045-3.515 2.647.878-1.162 2.069-2.073 3.515-2.647z"/><path fill="#8f99a1" d="M297.975 220.569c-2.139-.124-4.372-.594-6.79-1.326 2.108.152 4.403.566 6.79 1.326z"/></svg>